<?xml version="1.0" encoding="UTF-8"?>
<svg version="1.1" xmlns="http://www.w3.org/2000/svg" width="1440" height="858">
<path d="M0 0 C13.71966965 11.80251057 22.15356243 28.36833089 23.5244751 46.42835999 C23.60576948 49.61380445 23.64554692 52.79377007 23.63012505 55.98020363 C23.62082662 58.07985057 23.63144164 60.17863958 23.64674377 62.27824402 C23.68636103 68.2361869 23.68804104 74.19404657 23.68579102 80.15209961 C23.6857397 83.82421921 23.70499505 87.49586344 23.73512459 91.1678524 C23.74584564 93.22199429 23.73389285 95.27519003 23.72129822 97.32929993 C23.7794687 104.62576996 24.2240051 109.64674341 28.25 115.8125 C32.2433857 119.56386232 35.91060599 119.9383784 41.2434082 119.97021484 C42.47932205 119.98047699 43.7152359 119.99073914 44.98860168 120.00131226 C45.64966227 120.00475018 46.31072285 120.0081881 46.99181557 120.01173019 C49.0753013 120.02357692 51.15858505 120.04305175 53.24198914 120.06484985 C59.16621956 120.12621717 65.09043533 120.18013977 71.01489258 120.21386719 C74.64307968 120.23507297 78.27090717 120.27058993 81.89888573 120.31462479 C83.92684042 120.33531078 85.95493244 120.34079033 87.98298645 120.34579468 C107.98341289 120.60656883 125.86539344 126.59209646 140.5 140.5625 C155.54092636 156.34236252 159.84486466 174.16405615 159.4921875 195.265625 C158.89279716 213.05742926 150.64554375 226.70606514 138.25 238.8125 C137.26386719 239.82957031 137.26386719 239.82957031 136.2578125 240.8671875 C121.57321303 255.04759472 101.21076403 257.45794938 81.84375 257.203125 C80.14026564 257.19563983 78.43677251 257.18995771 76.73327637 257.18597412 C72.3076283 257.17089641 67.88252791 257.13177532 63.45709229 257.0871582 C58.91808475 257.04581356 54.37898639 257.02788052 49.83984375 257.0078125 C40.97631464 256.96525825 32.11322595 256.8972319 23.25 256.8125 C23.25888245 257.76890884 23.26776489 258.72531769 23.2769165 259.71070862 C23.35849765 268.78582928 23.41820071 277.8608742 23.45724869 286.93628025 C23.47799951 291.6004996 23.5060843 296.26441964 23.55175781 300.9284668 C23.59566719 305.44132812 23.61923075 309.95390412 23.62950897 314.46696281 C23.63682039 316.17671123 23.65109413 317.88644651 23.67292023 319.59607124 C23.92977204 340.57632233 18.77430077 359.03401572 3.8203125 374.4453125 C-12.37098895 389.35705822 -30.7073916 393.74405174 -52.13232422 392.98730469 C-70.48531116 391.76171817 -84.83382461 381.63519142 -96.84375 368.52734375 C-107.73223536 355.37042394 -110.54871084 341.63054819 -111.75 324.8125 C-100.2 324.8125 -88.65 324.8125 -76.75 324.8125 C-75.76 328.7725 -74.77 332.7325 -73.75 336.8125 C-69.84102073 345.41225439 -64.724307 351.22844675 -56.0625 355.25 C-47.23332549 358.38293289 -38.31796222 357.82066464 -29.84375 353.96875 C-27.22690526 352.52362679 -24.99605973 350.77780226 -22.75 348.8125 C-22.09 348.8125 -21.43 348.8125 -20.75 348.8125 C-20.47285156 348.25691406 -20.19570312 347.70132812 -19.91015625 347.12890625 C-19.10959483 345.5304789 -18.30463202 343.93425099 -17.49609375 342.33984375 C-17.06425781 341.48519531 -16.63242188 340.63054687 -16.1875 339.75 C-15.53587891 338.46416016 -15.53587891 338.46416016 -14.87109375 337.15234375 C-13.22491871 333.71659863 -12.62184244 331.04190333 -12.59178162 327.27571106 C-12.5819928 326.34603012 -12.57220398 325.41634918 -12.56211853 324.45849609 C-12.55636307 323.44070068 -12.5506076 322.42290527 -12.54467773 321.37426758 C-12.53477814 320.30093674 -12.52487854 319.2276059 -12.51467896 318.12174988 C-12.48304059 314.56686626 -12.45829719 311.01196927 -12.43359375 307.45703125 C-12.41302625 304.99508818 -12.39202983 302.53314866 -12.37062073 300.07121277 C-12.31537904 293.58573273 -12.26597896 287.10022071 -12.21777344 280.61468506 C-12.16757375 273.99895373 -12.11187969 267.38326895 -12.05664062 260.76757812 C-11.94903339 247.78259209 -11.84740757 234.79756634 -11.75 221.8125 C-11.1983829 221.81103344 -10.6467658 221.80956688 -10.07843304 221.80805588 C3.38638665 221.77089291 16.85095345 221.71150409 30.31557178 221.62859726 C36.82717172 221.58916574 43.3386373 221.55695582 49.8503418 221.54150391 C56.13990985 221.52630918 62.42910841 221.49181274 68.71851158 221.44419098 C71.11251289 221.42940637 73.50656697 221.42146067 75.90061378 221.42061615 C79.26592575 221.41823604 82.63022517 221.39107074 85.99536133 221.35839844 C86.97504379 221.3634288 87.95472626 221.36845917 88.96409607 221.37364197 C98.75835337 221.2274756 107.3626042 218.59844024 114.53125 211.73828125 C121.62807601 203.78661029 123.72632458 195.86112156 123.5703125 185.296875 C122.9104664 178.1190369 119.84566785 173.22882282 115.25 167.8125 C115.25 167.1525 115.25 166.4925 115.25 165.8125 C114.693125 165.53535156 114.13625 165.25820312 113.5625 164.97265625 C111.97499827 164.17622379 110.3918596 163.37105278 108.8125 162.55859375 C107.966875 162.12675781 107.12125 161.69492188 106.25 161.25 C105.404375 160.81558594 104.55875 160.38117188 103.6875 159.93359375 C98.92710253 157.74411607 94.53691079 157.66697142 89.35131836 157.6706543 C88.55885712 157.66717987 87.76639587 157.66370544 86.94992065 157.66012573 C85.2306329 157.65278194 83.51133574 157.64742923 81.79203606 157.64383507 C79.06241644 157.63664652 76.33297419 157.62095985 73.60340881 157.60249329 C65.84280912 157.5501524 58.08230542 157.50211194 50.3215332 157.48657227 C45.57048207 157.47643675 40.81987649 157.44696889 36.06900215 157.40525246 C34.26671293 157.39301312 32.46436056 157.38780816 30.66203117 157.39005089 C18.84394314 157.40113303 7.58435933 157.03265005 -2.1875 149.421875 C-9.39995447 141.9930469 -12.0569122 132.79182815 -12.02124023 122.64916992 C-12.02646698 121.86441788 -12.03169373 121.07966583 -12.03707886 120.27113342 C-12.04726788 118.5781013 -12.0530903 116.8850383 -12.05496025 115.19197655 C-12.05864675 112.50432847 -12.07543621 109.81704192 -12.09571838 107.12947083 C-12.15090686 99.49190013 -12.18175217 91.85427693 -12.20629883 84.21655273 C-12.22225157 79.53344702 -12.25254983 74.85059889 -12.29106331 70.16762733 C-12.3026444 68.39241602 -12.30864305 66.6171585 -12.30874443 64.84190941 C-12.30974187 52.02328297 -12.3940689 40.63305974 -21.75 30.8125 C-28.93754422 24.24995963 -36.10164443 21.14361422 -45.8828125 21.46875 C-54.54879887 22.50772384 -62.18800484 25.98751904 -67.75 32.8125 C-72.80060998 41.12725966 -74.89892749 47.96841084 -74.8918457 57.64111328 C-74.89532013 58.41421341 -74.89879456 59.18731354 -74.90237427 59.98384094 C-74.90970714 61.65782076 -74.91506563 63.33181015 -74.91866493 65.00580215 C-74.92586599 67.66409294 -74.9415612 70.32220292 -74.96000671 72.98043823 C-75.01229354 80.53706325 -75.06039308 88.09358873 -75.07592773 95.65039062 C-75.08606528 100.2794067 -75.11553554 104.90796571 -75.15724754 109.53680038 C-75.16948134 111.29164024 -75.17469288 113.04654487 -75.17244911 114.80142593 C-75.16056864 127.12973154 -75.8630939 138.08570662 -83.984375 148.09375 C-91.03277417 154.95502352 -100.33631291 157.11742283 -109.91333008 157.08374023 C-110.69808212 157.08896698 -111.48283417 157.09419373 -112.29136658 157.09957886 C-113.9843987 157.10976788 -115.6774617 157.1155903 -117.37052345 157.11746025 C-120.05817153 157.12114675 -122.74545808 157.13793621 -125.43302917 157.15821838 C-133.07059987 157.21340686 -140.70822307 157.24425217 -148.34594727 157.26879883 C-153.02905298 157.28475157 -157.71190111 157.31504983 -162.39487267 157.35356331 C-164.17008398 157.3651444 -165.9453415 157.37114305 -167.72059059 157.37124443 C-182.75066513 157.37241395 -193.44149458 158.50399458 -204.5 169.5625 C-210.01119945 177.52312143 -211.94958057 185.16587294 -210.75 194.8125 C-208.96974059 203.04619979 -205.1694362 209.34774918 -198.75 214.8125 C-192.46435891 218.81158368 -186.51661311 220.90986171 -179.04862976 220.97071838 C-178.1330278 220.9805072 -177.21742584 220.99029602 -176.27407837 221.00038147 C-175.28217499 221.00613693 -174.29027161 221.0118924 -173.26831055 221.01782227 C-171.68713692 221.03267166 -171.68713692 221.03267166 -170.07402039 221.04782104 C-166.59494257 221.0793711 -163.11585111 221.10416788 -159.63671875 221.12890625 C-157.22247465 221.14948138 -154.80823411 221.170478 -152.39399719 221.19187927 C-146.04335412 221.24704219 -139.69267884 221.296477 -133.34197998 221.34472656 C-126.860119 221.39498376 -120.37830471 221.45064781 -113.89648438 221.50585938 C-101.18102801 221.61337029 -88.46553193 221.71433128 -75.75 221.8125 C-75.75 233.3625 -75.75 244.9125 -75.75 256.8125 C-90.07664518 256.90319263 -104.40309688 256.97644139 -118.72996521 257.01974869 C-125.38390326 257.04054344 -132.03757756 257.06871175 -138.69140625 257.11425781 C-145.1234845 257.15800594 -151.55536369 257.18169801 -157.98757935 257.19200897 C-160.43054331 257.1993486 -162.87349748 257.2136798 -165.31637573 257.23542023 C-187.76020389 257.42705253 -207.18704273 255.26790239 -224.75 239.8125 C-225.50023437 239.16796875 -226.25046875 238.5234375 -227.0234375 237.859375 C-237.55520162 228.15433639 -245.93122312 212.91054876 -246.91113281 198.43164062 C-247.27533307 177.07087201 -244.45835328 159.34283398 -229.75 142.8125 C-229.21890625 142.20019531 -228.6878125 141.58789062 -228.140625 140.95703125 C-216.64783264 128.56123377 -199.69842601 121.79125019 -183.07763672 120.53491211 C-179.24704942 120.42385493 -175.42590366 120.39740412 -171.59375 120.40625 C-170.19322518 120.39698426 -168.7927108 120.38600263 -167.39221191 120.37341309 C-162.2661524 120.33097241 -157.14012058 120.31936321 -152.01391602 120.30718994 C-147.64701973 120.29563037 -143.28050792 120.27203458 -138.91377258 120.23249817 C-136.88517606 120.21902513 -134.85711409 120.22307578 -132.82849121 120.22790527 C-131.59280396 120.21779419 -130.3571167 120.20768311 -129.08398438 120.19726562 C-127.46188049 120.19418396 -127.46188049 120.19418396 -125.80700684 120.19104004 C-120.97159348 119.59228522 -117.729472 117.87138865 -114.4375 114.3125 C-111.77896725 110.37393297 -111.6228525 107.40487891 -111.6081543 102.7590332 C-111.60111984 101.50955399 -111.59408539 100.26007477 -111.58683777 98.97273254 C-111.58502188 98.30411509 -111.58320599 97.63549763 -111.58133507 96.94661903 C-111.57413026 94.83737575 -111.55842658 92.72835989 -111.53999329 90.6191864 C-111.48776717 84.6214036 -111.43974735 78.62373681 -111.42407227 72.62573242 C-111.41384495 68.95207625 -111.38414386 65.2789822 -111.34275246 61.60555077 C-111.33062815 60.22048434 -111.32528628 58.83533774 -111.32755089 57.45022011 C-111.35093698 38.44657501 -106.63683163 19.98229222 -93.04296875 6.046875 C-92.28628906 5.30953125 -91.52960938 4.5721875 -90.75 3.8125 C-90.08613281 3.11640625 -89.42226562 2.4203125 -88.73828125 1.703125 C-64.29491279 -22.32121428 -25.87253254 -19.83560828 0 0 Z " fill="#234974" transform="translate(1235.75,20.1875)"/>
<path d="M0 0 C442.86 0 885.72 0 1342 0 C1342 2.31 1342 4.62 1342 7 C899.14 7 456.28 7 0 7 C0 4.69 0 2.38 0 0 Z " fill="#234974" transform="translate(53,651)"/>
<path d="M0 0 C11.55 0 23.1 0 35 0 C35.09064949 14.60467948 35.16418361 29.20918155 35.20724869 43.81408024 C35.22778508 50.5969412 35.25573235 57.37961365 35.30175781 64.16235352 C35.34621794 70.71759252 35.36919015 77.27270991 35.37950897 83.82809258 C35.38685536 86.31933089 35.40120016 88.81055948 35.42292023 91.30171394 C35.62069848 114.94255877 32.70297779 134.97621249 15.5703125 152.6328125 C-0.62098895 167.54455822 -18.9573916 171.93155174 -40.38232422 171.17480469 C-58.73531116 169.94921817 -73.08382461 159.82269142 -85.09375 146.71484375 C-95.98223536 133.55792394 -98.79871084 119.81804819 -100 103 C-88.45 103 -76.9 103 -65 103 C-64.01 106.96 -63.02 110.92 -62 115 C-58.09102073 123.59975439 -52.974307 129.41594675 -44.3125 133.4375 C-35.48332549 136.57043289 -26.56796222 136.00816464 -18.09375 132.15625 C-15.47690526 130.71112679 -13.24605973 128.96530226 -11 127 C-10.34 127 -9.68 127 -9 127 C-8.58427734 126.16662109 -8.58427734 126.16662109 -8.16015625 125.31640625 C-7.35959483 123.7179789 -6.55463202 122.12175099 -5.74609375 120.52734375 C-5.31425781 119.67269531 -4.88242188 118.81804687 -4.4375 117.9375 C-4.00308594 117.08027344 -3.56867188 116.22304688 -3.12109375 115.33984375 C-1.47491871 111.90409863 -0.87184244 109.22940333 -0.84178162 105.46321106 C-0.8319928 104.53353012 -0.82220398 103.60384918 -0.81211853 102.64599609 C-0.80636307 101.62820068 -0.8006076 100.61040527 -0.79467773 99.56176758 C-0.78477814 98.48843674 -0.77487854 97.4151059 -0.76467896 96.30924988 C-0.73304059 92.75436626 -0.70829719 89.19946927 -0.68359375 85.64453125 C-0.66302625 83.18258818 -0.64202983 80.72064866 -0.62062073 78.25871277 C-0.56537904 71.77323273 -0.51597896 65.28772071 -0.46777344 58.80218506 C-0.41757375 52.18645373 -0.36187969 45.57076895 -0.30664062 38.95507812 C-0.19903337 25.97009033 -0.09810165 12.98506309 0 0 Z " fill="#49AB8F" transform="translate(1224,242)"/>
<path d="M0 0 C1.53701065 -0.00074776 1.53701065 -0.00074776 3.10507202 -0.00151062 C5.26847272 0.00082282 7.43187651 0.01050811 9.59521484 0.02709961 C12.86711604 0.0505567 16.13819298 0.04767097 19.41015625 0.04101562 C50.94956775 0.08196378 50.94956775 0.08196378 61.23828125 9.08203125 C67.38288139 15.42149186 70.38454819 23.06936492 70.7734375 31.86328125 C70.41732479 40.44682563 67.51383139 48.40654162 61.2734375 54.36328125 C55.99258372 58.5092147 50.87128509 60.34000396 44.2734375 61.36328125 C44.2734375 62.02328125 44.2734375 62.68328125 44.2734375 63.36328125 C44.85867187 63.62753906 45.44390625 63.89179688 46.046875 64.1640625 C58.34327415 70.78685994 68.00090924 88.75067548 71.96484375 101.60546875 C72.54888063 104.39411332 72.68376088 106.59934586 71.3125 109.15234375 C69.18534142 111.87252836 67.56222366 113.2670192 64.2734375 114.36328125 C59.22187764 114.73747087 56.22287284 114.62156541 52.2734375 111.36328125 C46.20424431 104.36589233 41.7215547 96.55655827 37.16796875 88.53515625 C29.62936428 74.90864247 29.62936428 74.90864247 17.2734375 66.36328125 C14.70708889 66.13609629 12.15665643 65.94719941 9.5859375 65.80078125 C8.88404297 65.75759766 8.18214844 65.71441406 7.45898438 65.66992188 C5.73068544 65.56410765 4.0020864 65.46321544 2.2734375 65.36328125 C2.29438477 66.57387207 2.31533203 67.78446289 2.33691406 69.03173828 C2.4095029 73.53796486 2.45530585 78.04414009 2.49316406 82.55078125 C2.51323656 84.49846091 2.54050082 86.44608062 2.57519531 88.39355469 C2.62390602 91.19871846 2.64644991 94.00308312 2.6640625 96.80859375 C2.68470764 97.67445099 2.70535278 98.54030823 2.72662354 99.43240356 C2.7286419 104.91312549 1.92641026 108.01096658 -1.7265625 112.36328125 C-5.1359668 114.94972589 -8.5652074 114.7283124 -12.7265625 114.36328125 C-16.95375705 112.53790178 -18.80169649 110.50824516 -20.7265625 106.36328125 C-21.16257107 103.20085814 -21.13648738 100.06719628 -21.11474609 96.87890625 C-21.12000305 95.93035767 -21.12526001 94.98180908 -21.13067627 94.0045166 C-21.14386319 90.87393654 -21.13514264 87.74386634 -21.125 84.61328125 C-21.12702111 82.43522036 -21.12993285 80.25716013 -21.13369751 78.07910156 C-21.1381191 73.51621045 -21.13169499 68.95349561 -21.11767578 64.390625 C-21.10058415 58.54284635 -21.1104262 52.69548078 -21.12839317 46.84771729 C-21.13923537 42.35071706 -21.13578263 37.85381471 -21.1280098 33.35681152 C-21.126009 31.20064241 -21.12846281 29.04446439 -21.13544846 26.88830566 C-21.14306993 23.8745165 -21.13144856 20.86139566 -21.11474609 17.84765625 C-21.12081879 16.95711548 -21.12689148 16.06657471 -21.13314819 15.14904785 C-21.0845928 10.41813432 -20.86177989 7.16683643 -17.7265625 3.36328125 C-11.93953905 -0.06969083 -6.60954168 -0.06255939 0 0 Z M2.2734375 18.36328125 C2.2734375 28.26328125 2.2734375 38.16328125 2.2734375 48.36328125 C23.9409406 49.99955884 23.9409406 49.99955884 43.2734375 42.36328125 C46.14151456 38.92158878 46.81647767 35.91570522 46.62109375 31.421875 C45.98336536 27.64566307 44.57764435 25.45576939 42.2734375 22.36328125 C36.52505352 18.69409999 31.13696714 18.23612914 24.44140625 18.265625 C22.69380005 18.26937134 22.69380005 18.26937134 20.91088867 18.27319336 C19.44240479 18.28229736 17.9739209 18.29140137 16.4609375 18.30078125 C9.438125 18.33171875 9.438125 18.33171875 2.2734375 18.36328125 Z " fill="#234974" transform="translate(69.7265625,295.63671875)"/>
<path d="M0 0 C3.56871184 2.0619224 4.76350023 3.41438153 6.3125 7.25 C6.539375 8.1575 6.76625 9.065 7 10 C7.53367187 9.52949219 8.06734375 9.05898438 8.6171875 8.57421875 C16.23297583 2.21016034 23.56538721 -0.66831427 33.55859375 -0.27734375 C41.1478739 0.58479848 45.92630294 3.26142287 51.37109375 8.57421875 C52.89002823 10.21954412 52.89002823 10.21954412 55 10 C56.00960206 9.11696613 56.9832535 8.1925809 57.9375 7.25 C64.26584108 1.70941922 72.16254519 -0.73670532 80.52734375 -0.3125 C89.0309393 0.76220402 95.32758389 3.40036202 101 10 C105.84791685 17.60853617 105.16912369 27.18719231 105.203125 35.84765625 C105.20882507 36.97771591 105.21452515 38.10777557 105.22039795 39.27207947 C105.22981359 41.65313794 105.23636821 44.03420925 105.24023438 46.4152832 C105.24997665 50.05377751 105.28104795 53.69171527 105.3125 57.33007812 C105.31902734 59.64843416 105.32427886 61.96679421 105.328125 64.28515625 C105.3404718 65.36966568 105.3528186 66.45417511 105.36553955 67.57154846 C105.34919356 73.11643328 105.22310783 77.25519284 102 82 C99.06791771 84.44340191 97.31177679 84.96659534 93.5 85.375 C89.62551784 84.95987691 87.90939294 84.58612706 85 82 C81.91262992 75.46827102 81.57244793 69.8311819 81.59375 62.67578125 C81.58291382 61.611353 81.57207764 60.54692474 81.56091309 59.45024109 C81.51525086 54.92447102 81.5035466 50.39876196 81.48876953 45.87280273 C81.47308262 42.55692145 81.44009641 39.24151882 81.40625 35.92578125 C81.40927124 34.90486893 81.41229248 33.8839566 81.41540527 32.83210754 C81.39331992 25.90151148 81.39331992 25.90151148 78 20 C74.23740021 17.49160014 72.53519808 17.84901359 68.21875 18.47265625 C64.87807946 19.26665365 63.25536904 20.41295904 61 23 C58.20347026 29.14692869 57.57058913 34.20473008 57.59375 40.90625 C57.57749573 42.29245544 57.57749573 42.29245544 57.56091309 43.70666504 C57.52687705 46.63784885 57.51110545 49.56864526 57.5 52.5 C57.48535762 56.36495139 57.45156644 60.22904965 57.40625 64.09375 C57.40927124 64.96793579 57.41229248 65.84212158 57.41540527 66.74279785 C57.345879 72.48079301 56.41013988 76.76880158 54 82 C51.12967542 84.55139963 49.37166669 84.95269697 45.5625 85.4375 C41.26133703 84.909287 39.23950231 83.862816 36 81 C33.38716256 75.43603612 33.68667592 69.70625816 33.65625 63.6875 C33.6416272 62.60041748 33.62700439 61.51333496 33.61193848 60.39331055 C33.54987619 55.75744091 33.51012693 51.1214404 33.46826172 46.48535156 C33.43445557 43.09426177 33.38936307 39.70344822 33.34375 36.3125 C33.3384729 35.26860107 33.3331958 34.22470215 33.32775879 33.14916992 C33.25866856 28.09541702 33.16011891 23.67831158 31 19 C29.28619384 17.96442703 29.28619384 17.96442703 27 18 C25.329375 17.87625 25.329375 17.87625 23.625 17.75 C19.47668704 18.03609055 17.39224403 18.58773758 14 21 C8.97890328 28.24381151 8.86037181 36.08071827 8.7890625 44.59765625 C8.76101126 46.46941005 8.73234693 48.34115474 8.703125 50.21289062 C8.66179504 53.1446117 8.62487773 56.07615937 8.59863281 59.00805664 C8.57102207 61.85077262 8.52517619 64.6927322 8.4765625 67.53515625 C8.47330963 68.40922623 8.47005676 69.2832962 8.46670532 70.18385315 C8.37068399 74.94321306 8.06587683 78.12586353 5 82 C2.6300673 84.09111708 0.99077013 84.95569007 -2.18359375 85.09765625 C-6.03050386 84.83866887 -8.37412246 84.46940815 -11.5 82.125 C-14.22990681 78.25763201 -14.13977559 74.93774781 -14.17700195 70.32885742 C-14.18357315 69.65530716 -14.19014435 68.9817569 -14.19691467 68.28779602 C-14.21661339 66.06035241 -14.2283025 63.83297611 -14.23828125 61.60546875 C-14.24235678 60.84342951 -14.2464323 60.08139027 -14.25063133 59.29625893 C-14.27147739 55.26285703 -14.28578546 51.22948901 -14.29516602 47.19604492 C-14.30622799 43.03643905 -14.34062906 38.8773685 -14.38033772 34.71795177 C-14.40651844 31.51368739 -14.4148591 28.3095503 -14.41844749 25.10518837 C-14.42330966 23.57222185 -14.43491323 22.03926088 -14.45348549 20.50639915 C-14.47790985 18.35694656 -14.47690695 16.20887588 -14.4699707 14.05932617 C-14.47583694 12.83815598 -14.48170319 11.61698578 -14.48774719 10.35881042 C-13.89954624 6.30823768 -12.58610506 4.14112067 -10 1 C-6.39427296 -0.20190901 -3.7897565 -0.32670315 0 0 Z " fill="#234974" transform="translate(261,325)"/>
<path d="M0 0 C5.57103163 6.95499317 7.78630173 12.08390003 7 21 C5.75420505 23.98990788 4.80979108 25.39265669 2.25 27.3125 C-1.0210618 28.31199111 -3.59742588 28.3581657 -7 28 C-11.17950157 25.25699897 -13.11731231 22.40524427 -15.375 18 C-18.43401421 12.61062089 -20.12193827 10.05732161 -26 8 C-33.35364252 6.41369807 -40.18000626 6.61453548 -47 10 C-50.25159582 12.48996076 -51.7948848 14.99493554 -52.625 19.0625 C-51.75256294 23.16295419 -50.30837184 24.43432388 -47 27 C-40.7109954 30.33989122 -34.11850106 32.19983101 -27.25 33.9375 C0.5917089 41.31658644 0.5917089 41.31658644 7.625 51.30859375 C12.66276117 60.02449305 13.38068309 69.14055535 11.38671875 79.046875 C8.48921884 88.08401128 3.32440495 94.41562962 -5.00219727 99.01245117 C-20.25359442 106.80578142 -37.74276124 107.03773695 -54 102 C-57.23957696 100.61771716 -60.10360812 98.9968913 -63 97 C-64.051875 96.278125 -65.10375 95.55625 -66.1875 94.8125 C-72.25799753 88.74200247 -76.55766958 81.04256683 -77.3125 72.4375 C-76.88733619 67.76069804 -75.26970132 65.26970132 -72 62 C-65.22222222 60.55555556 -65.22222222 60.55555556 -61.25 62 C-58.3274465 64.59782533 -56.73588173 67.56123808 -55 71 C-51.25866412 78.3221524 -48.15011955 83.28712523 -40 86 C-32.24366736 86.71354554 -24.92210942 86.77569605 -18 83 C-14.50124766 79.70343687 -12.15309271 76.59216422 -11.6875 71.75 C-12.06694101 67.19670784 -12.97170546 65.40683136 -16 62 C-22.56951172 58.15889338 -29.2737364 56.48542964 -36.625 54.6875 C-63.92484561 47.64385397 -63.92484561 47.64385397 -71 37 C-74.99153854 29.22069515 -76.44544727 21.65811444 -74.26953125 13.140625 C-71.28591618 4.12888969 -66.91445931 -1.01720599 -58.67578125 -5.6796875 C-40.8799077 -14.46071708 -15.21496853 -13.50143809 0 0 Z " fill="#234974" transform="translate(683,305)"/>
<path d="M0 0 C3.43659256 2.76421576 5.26747157 4.68339715 6 9 C6.14860808 11.38833147 6.24778427 13.77990874 6.31640625 16.171875 C6.33718735 16.8542926 6.35796844 17.53671021 6.37937927 18.23980713 C6.44452052 20.40977356 6.50359404 22.57985624 6.5625 24.75 C6.60571897 26.22527221 6.64933432 27.70053287 6.69335938 29.17578125 C6.80016518 32.78373166 6.90153153 36.39181133 7 40 C7.52239258 39.51716553 8.04478516 39.03433105 8.58300781 38.53686523 C9.28264648 37.90466064 9.98228516 37.27245605 10.703125 36.62109375 C11.39051758 35.99388428 12.07791016 35.3666748 12.78613281 34.72045898 C19.62322832 29.40715815 28.69738078 29.19217759 37 30 C45.14543243 31.51778244 50.38683498 35.539322 55.3125 42.0625 C60.74109201 52.84622736 59.30987838 67.11273276 59.26074219 78.82226562 C59.2499489 81.88952059 59.2607266 84.95619945 59.2734375 88.0234375 C59.27211701 89.99218878 59.26955691 91.9609397 59.265625 93.9296875 C59.26967346 94.83709686 59.27372192 95.74450623 59.27789307 96.67941284 C59.24008734 101.82733348 58.84047892 106.16776718 57 111 C53.76876719 113.93065301 51.7702936 114.90540254 47.4375 115.4375 C43.73493201 114.96626407 41.86476744 114.37366445 39 112 C36.24808239 107.17317138 36.70325004 101.93749793 36.69140625 96.546875 C36.66623941 94.46223687 36.64084148 92.37760152 36.61523438 90.29296875 C36.58655577 87.02360804 36.56252473 83.75429571 36.54370117 80.48486328 C36.52192357 77.31777763 36.48246938 74.15126102 36.44140625 70.984375 C36.44129044 70.01844421 36.44117462 69.05251343 36.4410553 68.05731201 C36.35354944 61.99459948 35.64582924 56.5248124 33 51 C30.04798902 48.21667537 28.22890108 48.02626734 24.1875 47.5625 C19.52719837 47.76512181 15.76909379 49.27555527 12 52 C8.19223815 56.68647612 6.89331107 60.4696868 6.84228516 66.39794922 C6.82689194 67.68981644 6.82689194 67.68981644 6.81118774 69.00778198 C6.80388641 69.9307608 6.79658508 70.85373962 6.7890625 71.8046875 C6.76099643 73.76953962 6.73233199 75.73438326 6.703125 77.69921875 C6.66187035 80.78889755 6.62497087 83.87841769 6.59863281 86.96826172 C6.57097545 89.95573333 6.52510902 92.94249196 6.4765625 95.9296875 C6.47330963 96.84861786 6.47005676 97.76754822 6.46670532 98.71432495 C6.36811871 103.87708729 5.88855607 107.53889264 3 112 C-0.88301272 115.23584393 -4.0392239 115.45097965 -9 115 C-12.1141038 114.13497117 -12.83160736 113.2636004 -14.58511353 110.51867676 C-16.40964566 105.98125349 -16.42104885 102.16840211 -16.38818359 97.32617188 C-16.39344055 96.36932999 -16.39869751 95.4124881 -16.40411377 94.426651 C-16.41728301 91.27384971 -16.4085864 88.12155614 -16.3984375 84.96875 C-16.40045911 82.77209374 -16.40337128 80.57543814 -16.40713501 78.37878418 C-16.4115542 73.77898762 -16.40514019 69.17936604 -16.39111328 64.57958984 C-16.37402181 58.68822043 -16.38386513 52.79726105 -16.40183067 46.90590668 C-16.41267933 42.37112345 -16.40921716 37.83643718 -16.4014473 33.301651 C-16.39944829 31.12956188 -16.40189402 28.95746392 -16.40888596 26.78538513 C-16.41651806 23.74796278 -16.40487114 20.71120135 -16.38818359 17.67382812 C-16.39425629 16.77910294 -16.40032898 15.88437775 -16.40658569 14.96253967 C-16.34509849 8.91099151 -15.45247752 4.45247752 -11 0 C-7.23978652 -1.53193882 -3.86856561 -0.95017401 0 0 Z " fill="#234974" transform="translate(492,295)"/>
<path d="M0 0 C3.9504887 3.09168681 5.31523946 5.12459133 6 10 C6.14463953 12.27519178 6.24613792 14.55332974 6.31640625 16.83203125 C6.35830078 18.12431641 6.40019531 19.41660156 6.44335938 20.74804688 C6.48316352 22.10286192 6.52287591 23.45767967 6.5625 24.8125 C6.60573723 26.18686105 6.64935312 27.56121024 6.69335938 28.93554688 C6.7992979 32.29026669 6.90137189 35.6450586 7 39 C7.67691895 38.51136475 8.35383789 38.02272949 9.05126953 37.51928711 C9.94442871 36.8825708 10.83758789 36.24585449 11.7578125 35.58984375 C12.64098145 34.9568335 13.52415039 34.32382324 14.43408203 33.67163086 C21.15507382 29.29307417 29.18667878 29.17542813 37 30 C43.47576052 31.74243764 49.65893802 34.33166926 53.37109375 40.1484375 C56.37746563 45.41171745 58.11963895 49.45604712 58.16113281 55.58544922 C58.17074036 56.73028778 58.1803479 57.87512634 58.19024658 59.05465698 C58.19449646 60.29216705 58.19874634 61.52967712 58.203125 62.8046875 C58.20882507 64.0759549 58.21452515 65.34722229 58.22039795 66.65701294 C58.22985134 69.34868958 58.23674656 72.04025463 58.24023438 74.73193359 C58.24571719 78.17412799 58.26974499 81.61592645 58.29820633 85.05799675 C58.32135463 88.34853023 58.3232837 91.63908399 58.328125 94.9296875 C58.3404718 96.16314911 58.3528186 97.39661072 58.36553955 98.66744995 C58.36253845 99.81859283 58.35953735 100.96973572 58.35644531 102.15576172 C58.36191376 103.67107986 58.36191376 103.67107986 58.36749268 105.2170105 C57.93766865 108.4720298 56.89951237 110.34686999 55 113 C51.57823311 115.56632517 48.15359579 115.36435051 44 115 C40.17065318 113.29806808 38.55246784 111.84439446 37 108 C36.74171448 105.79524231 36.74171448 105.79524231 36.72875977 103.37426758 C36.71857315 102.46264359 36.70838654 101.55101959 36.69789124 100.61177063 C36.69575119 99.63258163 36.69361115 98.65339264 36.69140625 97.64453125 C36.6662352 95.55663797 36.64083735 93.46874741 36.61523438 91.38085938 C36.58656901 88.10051245 36.5625443 84.82021308 36.54370117 81.53979492 C36.5219194 78.36611824 36.48245926 75.19300889 36.44140625 72.01953125 C36.44129044 71.05046341 36.44117462 70.08139557 36.4410553 69.08296204 C36.3475786 62.58394969 35.9384018 55.50104013 31.58375549 50.31257629 C28.08814568 47.41550374 24.32534757 47.64546331 20 48 C14.20423575 49.89227378 10.8675373 52.49432838 8 58 C7.13816498 60.81417482 6.86827458 63.35394184 6.84228516 66.2902832 C6.82689194 67.54727776 6.82689194 67.54727776 6.81118774 68.82966614 C6.80388641 69.72763412 6.79658508 70.62560211 6.7890625 71.55078125 C6.76099167 73.46550331 6.73232719 75.38021674 6.703125 77.29492188 C6.66191096 80.30330136 6.62500859 83.31152012 6.59863281 86.32006836 C6.57092444 89.23064128 6.52505351 92.14049006 6.4765625 95.05078125 C6.47330963 95.94267654 6.47005676 96.83457184 6.46670532 97.75349426 C6.35949146 103.23798839 5.6081573 107.14379927 3 112 C0.08028473 114.51419926 -1.65848838 114.96340947 -5.5 115.375 C-9.27148402 114.97091243 -11.09224684 114.40928119 -14 112 C-16.60802458 107.31990911 -16.28884323 102.53810874 -16.2746582 97.33203125 C-16.27976913 96.36397552 -16.28488007 95.3959198 -16.29014587 94.39852905 C-16.30403001 91.20312291 -16.30308618 88.00793269 -16.30078125 84.8125 C-16.30466838 82.58959879 -16.30900309 80.36669833 -16.31376648 78.14379883 C-16.32122583 73.4867919 -16.32093912 68.82986079 -16.31567383 64.17285156 C-16.3098749 58.20402697 -16.32682199 52.23551224 -16.3500185 46.26673889 C-16.36474577 41.67710556 -16.36562898 37.08754706 -16.36250877 32.49789429 C-16.36302234 30.29706203 -16.36826659 28.09622561 -16.37832069 25.89541626 C-16.39065014 22.81939499 -16.3839145 19.74398023 -16.37231445 16.66796875 C-16.38378006 15.30410538 -16.38378006 15.30410538 -16.39547729 13.91268921 C-16.34502868 7.86356349 -15.39236348 4.39236348 -11 0 C-7.23978652 -1.53193882 -3.86856561 -0.95017401 0 0 Z " fill="#234974" transform="translate(819,295)"/>
<path d="M0 0 C7.3672346 6.13936217 9.49820045 11.91474412 10.625 21.1875 C10.78438692 24.1036483 10.83166932 27.01754343 10.87109375 29.9375 C10.90401737 31.61458884 10.93722925 33.29167205 10.97070312 34.96875 C11.01810502 37.58199414 11.06261567 40.19521302 11.10180664 42.80859375 C11.14172329 45.35178622 11.19319397 47.89454893 11.24609375 50.4375 C11.2545079 51.21061523 11.26292206 51.98373047 11.27159119 52.78027344 C11.38038738 57.6027264 12.1520852 61.59424135 13.625 66.1875 C14.1964305 70.45993967 14.378739 73.93126833 12.125 77.6875 C8.67553637 79.75717818 5.63827664 80.38013728 1.625 80.1875 C-2.95652717 78.37619856 -5.49697739 75.05227322 -8.375 71.1875 C-8.375 70.5275 -8.375 69.8675 -8.375 69.1875 C-9.32761719 69.74179687 -10.28023438 70.29609375 -11.26171875 70.8671875 C-12.52854557 71.59913189 -13.79547827 72.33089305 -15.0625 73.0625 C-16.00125977 73.60970703 -16.00125977 73.60970703 -16.95898438 74.16796875 C-27.19913264 80.06543634 -37.91724955 82.04977014 -49.5625 79.125 C-55.98832682 76.95577184 -60.44694684 72.92409158 -64.3125 67.4375 C-66.96175215 59.33390518 -67.15598422 51.92133136 -63.375 44.1875 C-59.44903465 38.0954848 -54.05993251 35.03801638 -47.125 33.3125 C-46.20932251 33.08095215 -46.20932251 33.08095215 -45.27514648 32.84472656 C-42.97927858 32.27343239 -40.67821089 31.72846768 -38.375 31.1875 C-36.77325928 30.81093262 -36.77325928 30.81093262 -35.13916016 30.42675781 C-27.55745325 28.65233811 -19.96872743 26.90969975 -12.375 25.1875 C-12.49610166 23.73879324 -12.62847242 22.29102539 -12.765625 20.84375 C-12.83813477 20.03744141 -12.91064453 19.23113281 -12.98535156 18.40039062 C-13.24844388 15.99339265 -13.24844388 15.99339265 -15.125 13.6875 C-19.67803425 10.65214383 -25.03246361 10.6453607 -30.375 11.1875 C-36.01041201 12.50797477 -39.60678782 14.70638281 -43.375 19.1875 C-43.73722656 19.80753906 -44.09945313 20.42757813 -44.47265625 21.06640625 C-47.34683593 25.88918232 -47.34683593 25.88918232 -50.515625 26.80859375 C-54.70461744 27.03746254 -56.88437456 26.50790845 -60.4375 24.1875 C-62.44108518 21.08517457 -63.11687574 19.00818472 -62.8515625 15.30078125 C-61.3562344 8.66985909 -56.92617457 4.20613417 -51.48828125 0.4375 C-37.31085203 -7.94841008 -14.28878521 -7.67360687 0 0 Z M-25.1875 42 C-26.28126953 42.26103516 -27.37503906 42.52207031 -28.50195312 42.79101562 C-29.55962891 43.05205078 -30.61730469 43.31308594 -31.70703125 43.58203125 C-33.15686401 43.93551636 -33.15686401 43.93551636 -34.63598633 44.29614258 C-38.23411021 45.4670803 -41.33163717 46.90700926 -43.75 49.875 C-44.7168412 53.45231245 -44.51897562 56.66144857 -43.375 60.1875 C-39.76740822 63.79509178 -36.91138774 65.35530683 -31.875 65.5625 C-25.87542098 65.49293966 -21.26319846 63.61906894 -16.375 60.1875 C-12.10675957 55.68276076 -11.24762936 51.03296934 -11.3125 45 C-11.32152344 43.91332031 -11.33054687 42.82664062 -11.33984375 41.70703125 C-11.35144531 40.87558594 -11.36304688 40.04414063 -11.375 39.1875 C-16.01381995 39.1875 -20.70666488 40.89481443 -25.1875 42 Z " fill="#234974" transform="translate(446.375,329.8125)"/>
<path d="M0 0 C7.3672346 6.13936217 9.49820045 11.91474412 10.625 21.1875 C10.78438692 24.1036483 10.83166932 27.01754343 10.87109375 29.9375 C10.90401737 31.61458884 10.93722925 33.29167205 10.97070312 34.96875 C11.01810502 37.58199414 11.06261567 40.19521302 11.10180664 42.80859375 C11.14172329 45.35178622 11.19319397 47.89454893 11.24609375 50.4375 C11.2545079 51.21061523 11.26292206 51.98373047 11.27159119 52.78027344 C11.38038738 57.6027264 12.1520852 61.59424135 13.625 66.1875 C14.1964305 70.45993967 14.378739 73.93126833 12.125 77.6875 C8.66483015 79.76360191 5.66247363 80.51486273 1.625 80.1875 C-2.76755072 77.99122464 -5.61019284 75.228372 -8.375 71.1875 C-8.375 70.5275 -8.375 69.8675 -8.375 69.1875 C-9.32761719 69.74179687 -10.28023437 70.29609375 -11.26171875 70.8671875 C-12.52854557 71.59913189 -13.79547827 72.33089305 -15.0625 73.0625 C-16.00125977 73.60970703 -16.00125977 73.60970703 -16.95898438 74.16796875 C-27.19913264 80.06543634 -37.91724955 82.04977014 -49.5625 79.125 C-55.98832682 76.95577184 -60.44694684 72.92409158 -64.3125 67.4375 C-66.96175215 59.33390518 -67.15598422 51.92133136 -63.375 44.1875 C-59.44903465 38.0954848 -54.05993251 35.03801638 -47.125 33.3125 C-46.20932251 33.08095215 -46.20932251 33.08095215 -45.27514648 32.84472656 C-42.97927858 32.27343239 -40.67821089 31.72846768 -38.375 31.1875 C-36.77325928 30.81093262 -36.77325928 30.81093262 -35.13916016 30.42675781 C-27.55745325 28.65233811 -19.96872743 26.90969975 -12.375 25.1875 C-12.49610166 23.73879324 -12.62847242 22.29102539 -12.765625 20.84375 C-12.83813477 20.03744141 -12.91064453 19.23113281 -12.98535156 18.40039062 C-13.24844388 15.99339265 -13.24844388 15.99339265 -15.125 13.6875 C-19.67803425 10.65214383 -25.03246361 10.6453607 -30.375 11.1875 C-36.01041201 12.50797477 -39.60678782 14.70638281 -43.375 19.1875 C-43.73722656 19.80753906 -44.09945312 20.42757813 -44.47265625 21.06640625 C-47.34683593 25.88918232 -47.34683593 25.88918232 -50.515625 26.80859375 C-54.74388536 27.03960797 -56.8800381 26.52084169 -60.4375 24.125 C-62.91886857 20.36292507 -63.05302564 18.63233477 -62.375 14.1875 C-60.34136224 8.01481127 -56.8324958 3.67739769 -51.375 0.1875 C-36.43577625 -7.22292319 -14.82795976 -7.96316358 0 0 Z M-25.1875 42 C-26.28126953 42.26103516 -27.37503906 42.52207031 -28.50195312 42.79101562 C-29.55962891 43.05205078 -30.61730469 43.31308594 -31.70703125 43.58203125 C-33.15686401 43.93551636 -33.15686401 43.93551636 -34.63598633 44.29614258 C-38.23411021 45.4670803 -41.33163717 46.90700926 -43.75 49.875 C-44.7168412 53.45231245 -44.51897562 56.66144857 -43.375 60.1875 C-39.76740822 63.79509178 -36.91138774 65.35530683 -31.875 65.5625 C-25.87542098 65.49293966 -21.26319846 63.61906894 -16.375 60.1875 C-12.10675957 55.68276076 -11.24762936 51.03296934 -11.3125 45 C-11.32152344 43.91332031 -11.33054687 42.82664062 -11.33984375 41.70703125 C-11.35144531 40.87558594 -11.36304688 40.04414063 -11.375 39.1875 C-16.01381995 39.1875 -20.70666488 40.89481443 -25.1875 42 Z " fill="#234974" transform="translate(958.375,329.8125)"/>
<path d="M0 0 C2.8100346 1.79363911 4.50940468 3.01880935 6 6 C6.11902812 7.69463258 6.17714687 9.39371122 6.20532227 11.09228516 C6.22526749 12.15323395 6.24521271 13.21418274 6.26576233 14.30728149 C6.28247482 15.45626923 6.29918732 16.60525696 6.31640625 17.7890625 C6.33718735 18.96262299 6.35796844 20.13618347 6.37937927 21.3453064 C6.44491983 25.10514304 6.50378076 28.86505122 6.5625 32.625 C6.60568092 35.16927832 6.64929507 37.71354933 6.69335938 40.2578125 C6.80060582 46.50513207 6.9023638 52.75252326 7 59 C8.43127185 57.58232693 9.86057567 56.16266679 11.2890625 54.7421875 C12.08521973 53.95183105 12.88137695 53.16147461 13.70166016 52.34716797 C15.67742 50.3294332 17.54753631 48.2761671 19.375 46.125 C22.38090952 42.62399949 25.55768157 39.33000366 28.8125 36.0625 C29.29315918 35.5773291 29.77381836 35.0921582 30.26904297 34.59228516 C33.63577112 31.23989876 34.98128442 30.08350128 39.8125 29.6875 C42.84564367 29.75379822 44.16710659 30.08007191 47 31.4375 C49.47500157 34.60859576 49.96486701 36.51796635 49.7421875 40.5 C47.33586165 48.60551866 38.29459555 54.76308298 32 60 C36.58094909 68.64429246 41.93962115 76.7579707 47.29296875 84.9375 C56.00438377 98.38727347 56.00438377 98.38727347 55.99609375 103.328125 C55.13260177 106.29902047 54.35751094 108.542386 52.4375 111 C48.70750481 112.53025444 44.92910547 113.00712315 41 112 C37.30614969 108.67823534 34.7002468 105.24705809 32.15234375 101 C31.81376846 100.44183594 31.47519318 99.88367188 31.12635803 99.30859375 C30.05658706 97.54307128 28.99642331 95.77204613 27.9375 94 C26.87374725 92.22877069 25.80787705 90.45890126 24.7379303 88.69140625 C23.76850783 87.08871953 22.80580648 85.48197299 21.84350586 83.875 C20.05472605 81.08534683 18.11788854 78.54579503 16 76 C11.97755599 78.03153738 9.43296453 80.18403852 7 84 C6.12298907 88.68577069 6.14927392 93.38804835 6.25024414 98.14111328 C6.3595711 105.40667047 6.3595711 105.40667047 4.11328125 109.11328125 C0.57121876 112.27560321 -2.11908305 112.39972451 -6.73828125 112.34765625 C-9 112 -9 112 -12 109.8125 C-15.60948294 104.73666461 -15.14864103 99.34172514 -15.14526367 93.29760742 C-15.14862228 92.43190628 -15.1519809 91.56620514 -15.15544128 90.67427063 C-15.16492461 87.81798866 -15.16689314 84.96176548 -15.16796875 82.10546875 C-15.17118336 80.11395748 -15.17454759 78.12244645 -15.17805481 76.13093567 C-15.18403968 71.95732069 -15.18589539 67.78372639 -15.18530273 63.61010742 C-15.1852012 58.27388958 -15.19884749 52.93780505 -15.21607494 47.60161877 C-15.22721864 43.48797502 -15.22922121 39.37436324 -15.22869301 35.26070595 C-15.22986978 33.29401503 -15.23427447 31.3273232 -15.24202538 29.3606472 C-15.25187222 26.60386317 -15.24892864 23.84736526 -15.24291992 21.09057617 C-15.24853943 20.28562714 -15.25415894 19.4806781 -15.25994873 18.65133667 C-15.22626839 12.54039752 -14.97586713 6.32454956 -10.875 1.5 C-7.12063723 -0.45879797 -4.15240612 -0.85564732 0 0 Z " fill="#234974" transform="translate(390,475)"/>
<path d="M0 0 C3.12578398 2.5899353 4.0202314 5.31116117 4.4659729 9.31196594 C4.47929657 10.18910751 4.49262024 11.06624908 4.50634766 11.9699707 C4.52621735 12.97063065 4.54608704 13.97129059 4.56655884 15.00227356 C4.57811005 16.0701561 4.58966125 17.13803864 4.6015625 18.23828125 C4.62092865 19.34100876 4.6402948 20.44373627 4.6602478 21.57987976 C4.71992923 25.09484166 4.76638375 28.60983651 4.8125 32.125 C4.85069026 34.51108183 4.8897426 36.89715003 4.9296875 39.28320312 C5.02562143 45.1261809 5.11070247 50.96924106 5.1875 56.8125 C8.25419439 53.77503792 11.31508576 50.73179104 14.375 47.6875 C15.23931641 46.8315625 16.10363281 45.975625 16.99414062 45.09375 C21.29017949 40.81417105 25.36519986 36.5168694 29.1875 31.8125 C32.7314048 28.93906367 35.77593019 28.20745056 40.25 28.40234375 C43.7891924 29.15156795 45.20787522 30.90492611 47.1875 33.8125 C47.9375 37.125 47.9375 37.125 47.1875 40.8125 C45.20864397 43.83750285 42.75033252 46.27669207 40.1875 48.8125 C39.29933594 49.71355469 38.41117188 50.61460937 37.49609375 51.54296875 C35.0762799 53.98343535 32.63973292 56.40467371 30.1875 58.8125 C31.60704734 62.71658841 33.45197074 66.00429231 35.70703125 69.48828125 C36.39990234 70.56400391 37.09277344 71.63972656 37.80664062 72.74804688 C38.53760421 73.87379936 39.26872498 74.99944979 40 76.125 C42.10478194 79.38407865 44.2086504 82.64372024 46.30883789 85.90576172 C47.46200552 87.68998704 48.62340397 89.46896516 49.79858398 91.23876953 C50.25177002 91.93212402 50.70495605 92.62547852 51.171875 93.33984375 C51.55698242 93.91855225 51.94208984 94.49726074 52.33886719 95.09350586 C53.97400573 98.40564927 53.61045676 101.18715634 53.1875 104.8125 C52.01736774 108.2328866 51.31439277 108.72790482 48.1875 110.8125 C44.67900644 111.61601863 41.70098294 111.58268831 38.1875 110.8125 C32.09541787 105.36137607 28.0520331 97.07558515 23.82348633 90.13500977 C22.73414699 88.34900856 21.63423382 86.56982808 20.53320312 84.79101562 C19.83531107 83.65403011 19.13802194 82.51667423 18.44140625 81.37890625 C17.81564697 80.35740479 17.1898877 79.33590332 16.54516602 78.28344727 C15.1875 75.8125 15.1875 75.8125 15.1875 73.8125 C13.89506532 74.9366176 12.60357925 76.06182592 11.3125 77.1875 C10.59320312 77.81398438 9.87390625 78.44046875 9.1328125 79.0859375 C6.17320135 81.43478619 6.17320135 81.43478619 4.91625977 84.78027344 C4.90393311 85.56950195 4.89160645 86.35873047 4.87890625 87.171875 C4.85376953 88.04070312 4.82863281 88.90953125 4.80273438 89.8046875 C4.76787815 91.62753878 4.73656542 93.45046163 4.70898438 95.2734375 C4.55123298 100.49077646 4.16681047 104.33296937 1.1875 108.8125 C-2.83564866 111.49459911 -6.08469919 111.50093415 -10.8125 110.8125 C-14.31140004 108.69858123 -15.51828686 107.69513941 -16.8125 103.8125 C-16.90624025 102.48067926 -16.94730661 101.14471982 -16.95294189 99.80961609 C-16.95865204 98.99799011 -16.96436218 98.18636414 -16.97024536 97.35014343 C-16.97136322 96.46333389 -16.97248108 95.57652435 -16.97363281 94.6628418 C-16.97859772 93.72594513 -16.98356262 92.78904846 -16.98867798 91.82376099 C-17.00330051 88.71973947 -17.01010187 85.61576907 -17.015625 82.51171875 C-17.02137649 80.35561624 -17.02713423 78.19951374 -17.03289795 76.04341125 C-17.04340828 71.51990521 -17.0492507 66.99641693 -17.05273438 62.47290039 C-17.05821832 56.67901077 -17.08224423 50.88535624 -17.11070633 45.09154034 C-17.12933812 40.63655411 -17.13453861 36.18162445 -17.13607025 31.72660255 C-17.13909621 29.59078499 -17.14712281 27.45496841 -17.16025543 25.31918907 C-17.17732652 22.32939186 -17.17543292 19.34016809 -17.16894531 16.3503418 C-17.1781601 15.46960495 -17.18737488 14.5888681 -17.1968689 13.68144226 C-17.16264437 8.64171109 -16.60052004 5.18631835 -13.8125 0.8125 C-9.75400723 -2.37631575 -4.5614075 -1.92592761 0 0 Z " fill="#234974" transform="translate(691.8125,476.1875)"/>
<path d="M0 0 C7.62234398 6.1858253 12.21601015 14.31792286 13.48046875 24.13671875 C13.75350943 32.45033657 13.75350943 32.45033657 11.37109375 36.40234375 C5.96544104 41.59140937 -0.80649798 40.91652293 -7.8359375 40.84375 C-8.87066193 40.8409201 -9.90538635 40.83809021 -10.97146606 40.83517456 C-14.26234714 40.82401798 -17.55295178 40.79892147 -20.84375 40.7734375 C-23.08072522 40.76340187 -25.31770473 40.75427703 -27.5546875 40.74609375 C-33.0261353 40.72409345 -38.49742289 40.69066088 -43.96875 40.6484375 C-43.50830499 42.41131102 -43.04240791 44.17276111 -42.57421875 45.93359375 C-42.31535889 46.91465088 -42.05649902 47.89570801 -41.78979492 48.90649414 C-40.23808667 54.08854449 -37.99282888 57.32004958 -33.34375 60.0234375 C-27.68726206 62.50600721 -22.29327828 62.75661359 -16.42578125 60.80078125 C-11.65455306 58.61859161 -8.15078615 55.99596155 -4.40625 52.3359375 C-1.31353381 49.4299928 0.61636243 48.07169629 4.90625 47.8984375 C7.76521865 48.187827 8.80076875 48.46684621 11.09375 50.2734375 C12.58648747 54.0550391 12.83275959 56.79309123 11.1875 60.6015625 C6.27718222 69.29415208 -1.60898691 73.78769486 -10.96875 76.6484375 C-24.20187674 79.34871066 -38.26469735 78.19785566 -49.94140625 71.08203125 C-59.12081098 64.59100709 -63.96924328 55.66489105 -65.96875 44.6484375 C-67.402114 30.29737538 -65.89398805 16.59305021 -56.95703125 4.8046875 C-42.76218896 -10.58932614 -16.60549017 -11.98635734 0 0 Z M-39.28125 13.8984375 C-41.92772772 18.211216 -43.96875 22.53874798 -43.96875 27.6484375 C-32.08875 27.6484375 -20.20875 27.6484375 -7.96875 27.6484375 C-9.00329857 19.37204894 -10.49702671 14.80005561 -17.140625 9.6328125 C-25.17726785 5.30538942 -33.11212245 7.89604313 -39.28125 13.8984375 Z " fill="#234974" transform="translate(773.96875,332.3515625)"/>
<path d="M0 0 C1.03833984 -0.020625 2.07667969 -0.04125 3.14648438 -0.0625 C12.25756287 -0.1081982 21.18741762 1.11911516 28.3125 7.25 C37.32182688 17.61449025 35.50478693 32.58728006 35.14648438 45.38476562 C35.03235511 52.78742614 35.70409217 59.31427177 37.60961914 66.47875977 C38.60065526 70.3861064 38.88494541 73.24288212 38.3125 77.25 C36.30121662 80.36424524 34.85388485 81.84664696 31.22265625 82.796875 C27.56359428 83.12212495 25.24148852 82.91652336 22.2109375 80.7421875 C19.84103229 78.41129308 17.80427961 76.23355921 16.3125 73.25 C11.57593296 75.02943626 7.32563933 77.41869072 2.93359375 79.91015625 C-4.88993097 83.90936486 -16.49923972 83.66440348 -24.8828125 81.37890625 C-31.6437847 78.22585346 -36.29045891 73.74260273 -39.0625 66.8125 C-40.31542164 59.67084664 -40.30749505 53.64575098 -36.6875 47.25 C-30.97221126 39.86590602 -24.11175967 37.36501318 -15.1796875 35.4609375 C-14.49117706 35.3121817 -13.80266663 35.1634259 -13.09329224 35.01016235 C-10.91772596 34.54177678 -8.74021825 34.08326346 -6.5625 33.625 C-5.09491382 33.3105404 -3.62746448 32.99544151 -2.16015625 32.6796875 C3.32401296 31.50301259 8.80992578 30.33791653 14.3125 29.25 C13.74739946 27.45249935 13.15972594 25.66208377 12.5625 23.875 C12.07523438 22.37839844 12.07523438 22.37839844 11.578125 20.8515625 C10.53487567 18.22123899 10.53487567 18.22123899 8.6015625 16.91796875 C5.49307801 16.01088539 2.67397523 15.94794024 -0.5625 15.9375 C-2.35300781 15.91236328 -2.35300781 15.91236328 -4.1796875 15.88671875 C-9.46861442 16.4344584 -12.52207335 17.86630616 -15.9609375 21.94921875 C-16.65445313 22.93535156 -17.34796875 23.92148437 -18.0625 24.9375 C-22.03424054 29.99244251 -22.03424054 29.99244251 -24.8671875 31.109375 C-28.20428265 31.23530312 -30.71539081 30.23663565 -33.6875 28.8125 C-36.21712115 25.5714229 -36.35026823 23.58786079 -36.10546875 19.55859375 C-35.08289495 13.91054593 -31.99564224 9.86625533 -27.4609375 6.37890625 C-18.62827584 0.7563529 -10.23176898 0.04988065 0 0 Z M-0.0625 45.5 C-0.99578125 45.70496094 -1.9290625 45.90992188 -2.890625 46.12109375 C-8.93822662 47.53448506 -14.19103029 48.99373516 -18.125 54.125 C-18.94888749 57.23746386 -18.62999038 59.17119808 -17.6875 62.25 C-13.9019044 66.69461342 -13.9019044 66.69461342 -8.5859375 68.48828125 C-1.59701312 68.69383785 3.52162442 67.59715986 8.84765625 62.89453125 C14.17939009 57.09646501 14.5739569 50.70152179 14.3125 43.25 C9.27872568 43.25 4.81984912 44.35632644 -0.0625 45.5 Z " fill="#234974" transform="translate(999.6875,504.75)"/>
<path d="M0 0 C1.00933594 -0.01023193 2.01867187 -0.02046387 3.05859375 -0.03100586 C11.80085401 0.07126371 21.12119863 1.36864527 27.8125 7.4375 C32.39102352 14.89004236 33.94154661 21.0498367 34.0234375 29.71875 C34.05153647 31.38282182 34.08020108 33.04688417 34.109375 34.7109375 C34.15034952 37.31281961 34.18726518 39.91453076 34.21386719 42.51660156 C34.31554169 51.68483732 34.4698791 60.25771335 37.17822266 69.10742188 C38.11721015 72.5568817 37.93657815 75.06526556 36.8125 78.4375 C34.68437163 80.9525608 33.14357633 82.17666282 29.87890625 82.81640625 C26.1413249 83.03543276 24.23235527 82.69874328 21 80.6875 C15.8125 75.35178571 15.8125 75.35178571 15.8125 72.4375 C14.88308594 72.99179687 13.95367188 73.54609375 12.99609375 74.1171875 C11.74763501 74.84936631 10.49892348 75.58111421 9.25 76.3125 C8.33637695 76.85970703 8.33637695 76.85970703 7.40429688 77.41796875 C-2.43510086 83.14460235 -13.9482673 84.21591362 -25.046875 81.8203125 C-31.50572638 79.30358765 -36.3336726 74.23195608 -39.35546875 68.046875 C-41.27825579 62.01672596 -41.23123761 54.90409213 -38.6875 49.0625 C-34.26833498 41.60418991 -27.17161098 38.69869662 -19.1875 36.4375 C-14.60085342 35.31197053 -9.99220667 34.30421519 -5.375 33.3125 C-2.97258205 32.78940316 -0.57023513 32.26597995 1.83203125 31.7421875 C2.88495361 31.51515137 3.93787598 31.28811523 5.02270508 31.05419922 C7.29746465 30.55135134 9.55657757 30.01799107 11.8125 29.4375 C11.67081863 27.99958484 11.52398957 26.5621763 11.375 25.125 C11.29378906 24.32449219 11.21257813 23.52398438 11.12890625 22.69921875 C10.85984307 20.27662821 10.85984307 20.27662821 9.8125 17.4375 C3.92704712 14.98880793 -5.32348275 15.52251125 -11.48046875 16.98046875 C-15.48249827 18.93111472 -17.29063297 22.05868072 -19.5625 25.6875 C-22.51553786 30.20704779 -22.51553786 30.20704779 -25.48828125 31.2265625 C-29.22053378 31.36094802 -31.50997305 30.86095435 -34.6875 28.875 C-36.74254206 25.53555666 -37.1875 23.3759225 -37.1875 19.4375 C-35.32415876 12.81807797 -30.88224745 8.08324593 -25.1875 4.4375 C-17.12066667 0.27516134 -8.89954401 0.07003767 0 0 Z M-0.5 45.6875 C-1.43779297 45.89246094 -2.37558594 46.09742188 -3.34179688 46.30859375 C-10.12307502 47.88563518 -15.17148456 49.41347684 -19.1875 55.4375 C-19.65273838 58.42831816 -19.76419119 60.4793054 -18.171875 63.125 C-15.50305299 66.46906613 -13.54688436 68.14849911 -9.2421875 68.67578125 C-3.13573249 68.88370714 1.59346633 67.66533609 6.8125 64.4375 C10.54090087 60.70909913 12.65013274 56.84378272 13.0078125 51.54296875 C12.98460937 50.58003906 12.96140625 49.61710938 12.9375 48.625 C12.91945313 47.64917969 12.90140625 46.67335938 12.8828125 45.66796875 C12.85960937 44.93191406 12.83640625 44.19585938 12.8125 43.4375 C8.22950345 43.4375 3.94973082 44.65436494 -0.5 45.6875 Z " fill="#234974" transform="translate(790.1875,504.5625)"/>
<path d="M0 0 C1.0094165 -0.0103125 2.01883301 -0.020625 3.05883789 -0.03125 C11.97416606 0.07378209 20.84849055 1.46834904 27.8125 7.4375 C32.93698348 14.24186383 34.09767184 21.72196212 34.12109375 30.01171875 C34.14626755 31.66601894 34.17166536 33.32031573 34.19726562 34.97460938 C34.22584989 37.54352824 34.24990726 40.11238793 34.26879883 42.68139648 C34.34871962 51.80202743 34.48054643 60.2946455 37.17602539 69.10083008 C38.11638327 72.55313741 37.93766899 75.06199304 36.8125 78.4375 C34.68437163 80.9525608 33.14357633 82.17666282 29.87890625 82.81640625 C26.1413249 83.03543276 24.23235527 82.69874328 21 80.6875 C15.8125 75.35178571 15.8125 75.35178571 15.8125 72.4375 C14.88308594 72.99179687 13.95367188 73.54609375 12.99609375 74.1171875 C11.74763501 74.84936631 10.49892348 75.58111421 9.25 76.3125 C8.33637695 76.85970703 8.33637695 76.85970703 7.40429688 77.41796875 C-2.43510086 83.14460235 -13.9482673 84.21591362 -25.046875 81.8203125 C-31.50572638 79.30358765 -36.3336726 74.23195608 -39.35546875 68.046875 C-41.27825579 62.01672596 -41.23123761 54.90409213 -38.6875 49.0625 C-34.26833498 41.60418991 -27.17161098 38.69869662 -19.1875 36.4375 C-14.60085342 35.31197053 -9.99220667 34.30421519 -5.375 33.3125 C-2.97258205 32.78940316 -0.57023513 32.26597995 1.83203125 31.7421875 C2.88495361 31.51515137 3.93787598 31.28811523 5.02270508 31.05419922 C7.29746465 30.55135134 9.55657757 30.01799107 11.8125 29.4375 C11.67081863 27.99958484 11.52398957 26.5621763 11.375 25.125 C11.29378906 24.32449219 11.21257813 23.52398438 11.12890625 22.69921875 C10.85984307 20.27662821 10.85984307 20.27662821 9.8125 17.4375 C6.23609719 15.93348708 2.19300522 16.2329074 -1.625 16.1875 C-2.92308594 16.16171875 -4.22117187 16.1359375 -5.55859375 16.109375 C-9.35689556 16.45281671 -11.10124023 17.30904499 -14.1875 19.4375 C-14.8475 19.4375 -15.5075 19.4375 -16.1875 19.4375 C-16.414375 19.953125 -16.64125 20.46875 -16.875 21 C-17.5246875 22.2065625 -17.5246875 22.2065625 -18.1875 23.4375 C-18.49429688 24.03949219 -18.80109375 24.64148438 -19.1171875 25.26171875 C-20.83734313 28.18598332 -21.99780404 30.11670698 -25.375 31.02734375 C-29.16089195 31.18301365 -31.48126035 30.89655577 -34.6875 28.8125 C-37.44407443 24.44792382 -37.44328091 21.57024403 -36.3125 16.5625 C-33.5903069 10.21881786 -28.54963231 6.21071349 -22.55078125 3.046875 C-15.1514574 0.24125688 -7.84034385 0.0670473 0 0 Z M1.125 45.1875 C-0.50985352 45.56648437 -0.50985352 45.56648437 -2.17773438 45.953125 C-12.14000915 48.36946274 -12.14000915 48.36946274 -19.1875 55.4375 C-19.65273838 58.42831816 -19.76419119 60.4793054 -18.171875 63.125 C-15.99976037 65.8466858 -14.52300144 67.32566619 -11.1875 68.4375 C-3.87149727 69.17477159 1.36831831 67.70752884 7.5625 63.625 C13.71366507 57.64470063 13.46274467 50.56629633 13.8125 42.4375 C9.6682435 42.4375 5.13170994 44.21899835 1.125 45.1875 Z " fill="#234974" transform="translate(620.1875,504.5625)"/>
<path d="M0 0 C4.08320313 2.39666271 5.67551998 4.52171822 7 9 C7.29779443 12.42254082 7.3009011 15.83562343 7.30859375 19.26953125 C7.33375701 21.31315385 7.35915498 23.35677358 7.38476562 25.40039062 C7.41346552 28.60619336 7.43749675 31.81194606 7.45629883 35.01782227 C7.47804888 38.12282149 7.51749731 41.2272364 7.55859375 44.33203125 C7.55870956 45.28124954 7.55882538 46.23046783 7.5589447 47.20845032 C7.65435242 53.67596958 8.25699744 59.8506267 12.6875 64.9375 C16.88645662 66.86675034 20.7231861 67.69706802 25.15625 66.33984375 C29.48187663 64.34650461 32.5344951 62.17239291 35 58 C36.83573224 51.9619193 37.29298359 46.49271184 37.30859375 40.20703125 C37.33373111 38.34179344 37.35912943 36.47655914 37.38476562 34.61132812 C37.41357983 31.70158637 37.43763212 28.7919049 37.45629883 25.88208008 C37.47794875 23.05260232 37.51735681 20.22378141 37.55859375 17.39453125 C37.55870956 16.52673538 37.55882538 15.65893951 37.5589447 14.7648468 C37.6540847 8.95412387 38.63357763 5.54171292 42.6875 1.1875 C46.09697955 -0.56331382 49.29762103 -0.64773231 53 0 C56.40479394 1.85043149 57.66675705 3.17491029 59.11621094 6.76367188 C60.69173976 12.76302479 60.28449715 19.06567653 60.265625 25.21875 C60.26697455 26.60445219 60.26891749 27.99015391 60.27142334 29.37585449 C60.27436099 32.27063535 60.27012098 35.16529222 60.26074219 38.06005859 C60.24934837 41.75521466 60.25591517 45.4500801 60.26788712 49.14522552 C60.2751426 52.00382647 60.27280093 54.86235944 60.26763153 57.72096252 C60.26566418 59.7410196 60.27169735 61.7610794 60.27789307 63.78112793 C60.20271882 78.54554189 60.20271882 78.54554189 55.8125 83.4375 C52.15421082 85.46988288 50.13267794 85.6525281 46 85 C41.29074098 81.97896591 39.26717808 79.44886576 38 74 C37.59910156 74.38671875 37.19820312 74.7734375 36.78515625 75.171875 C29.08408535 82.2268243 20.7086725 85.37963483 10.2109375 85.21875 C3.56398907 84.56110139 -2.91747593 82.37333467 -8 78 C-15.06946769 69.33547136 -15.30973713 59.4844161 -15.30078125 48.703125 C-15.30506638 47.55132751 -15.3093515 46.39953003 -15.31376648 45.21282959 C-15.31948142 42.79244644 -15.3200311 40.37204613 -15.31567383 37.95166016 C-15.31249779 34.24742644 -15.33606485 30.54397989 -15.36132812 26.83984375 C-15.36359977 24.48177184 -15.36430524 22.12369778 -15.36328125 19.765625 C-15.372491 18.66035461 -15.38170074 17.55508423 -15.39118958 16.4163208 C-15.38496078 15.38464783 -15.37873199 14.35297485 -15.37231445 13.29003906 C-15.37294388 12.38674866 -15.3735733 11.48345825 -15.3742218 10.55279541 C-14.80451512 6.6664783 -12.9539049 4.02456453 -10.3125 1.1875 C-6.9086618 -0.56041692 -3.69710056 -0.66150905 0 0 Z " fill="#234974" transform="translate(169,325)"/>
<path d="M0 0 C3.93646599 2.13938369 4.82231458 3.49232737 6.3125 7.75 C6.539375 8.8225 6.76625 9.895 7 11 C7.70125 10.2575 8.4025 9.515 9.125 8.75 C17.22343163 1.00367409 24.43069029 -0.428012 35.3671875 -0.24609375 C43.0448135 0.2740035 48.88907019 3.21453123 54 9 C57.7475683 14.79169647 59.10864479 20.36910619 59.16113281 27.24584961 C59.17074036 28.26718491 59.1803479 29.2885202 59.19024658 30.34080505 C59.19449646 31.43361282 59.19874634 32.52642059 59.203125 33.65234375 C59.20882507 34.78523331 59.21452515 35.91812286 59.22039795 37.08534241 C59.22983162 39.47835358 59.23637543 41.87137764 59.24023438 44.2644043 C59.24995518 47.9206402 59.28100095 51.57631743 59.3125 55.23242188 C59.31902903 57.5598925 59.3242799 59.88736714 59.328125 62.21484375 C59.3404718 63.30562729 59.3528186 64.39641083 59.36553955 65.52024841 C59.34932487 71.05546575 59.28250586 75.29690176 56 80 C51.99745384 82.66836411 48.70686701 82.8340238 44 82 C41.24430553 79.81840855 39.56411253 78.12822506 38 75 C37.89751999 73.60302737 37.85418124 72.20145722 37.84228516 70.80078125 C37.83202301 69.93227539 37.82176086 69.06376953 37.81118774 68.16894531 C37.80388641 67.22631836 37.79658508 66.28369141 37.7890625 65.3125 C37.76096916 63.31379424 37.73230456 61.31509645 37.703125 59.31640625 C37.66204998 56.1678104 37.62516311 53.01935924 37.59863281 49.87060547 C37.57079542 46.83009011 37.5248983 43.79024983 37.4765625 40.75 C37.47330963 39.82356689 37.47005676 38.89713379 37.46670532 37.94262695 C37.35162528 31.73432126 36.67089204 25.68350053 34 20 C29.67130505 17.02932699 25.96403122 16.50051354 20.91796875 17.4375 C16.23597776 18.81062974 13.15998844 21.236462 10.6875 25.375 C7.16651772 33.56540995 7.96095108 43.36091802 7.859375 52.15625 C7.84969193 52.84055084 7.84000885 53.52485168 7.83003235 54.22988892 C7.77039246 58.43704972 7.77039246 58.43704972 7.74951172 62.64453125 C7.72813062 76.01077488 7.72813062 76.01077488 4.76953125 79.9296875 C0.9813003 82.76151035 -1.12402797 82.75173517 -5.69140625 82.453125 C-8 82 -8 82 -10.5 80.375 C-13.46230251 75.6846877 -14.25061119 71.22228048 -14.25878906 65.73852539 C-14.26509338 64.5202858 -14.27139771 63.3020462 -14.27789307 62.04689026 C-14.2738446 60.74364304 -14.26979614 59.44039581 -14.265625 58.09765625 C-14.26697418 56.73294506 -14.26891681 55.36823434 -14.27142334 54.00352478 C-14.27436373 51.14984541 -14.27011275 48.29629166 -14.26074219 45.44262695 C-14.24935906 41.8001277 -14.25590663 38.15792361 -14.26788712 34.51543522 C-14.27514443 31.69886589 -14.27279991 28.8823655 -14.26763153 26.06579399 C-14.26566392 24.07454612 -14.27169777 22.08329548 -14.27789307 20.09205627 C-14.20323003 5.62692811 -14.20323003 5.62692811 -10.375 1.0625 C-6.90449498 -0.49009435 -3.6908809 -0.64572071 0 0 Z " fill="#234974" transform="translate(152,505)"/>
<path d="M0 0 C3.00510141 1.60872666 5.50783658 3.5663884 6.65029907 6.89424133 C7.01844052 9.11104139 7.13859463 11.19506928 7.15771484 13.44213867 C7.16797699 14.31372116 7.17823914 15.18530365 7.18881226 16.08329773 C7.19611359 17.01873917 7.20341492 17.9541806 7.2109375 18.91796875 C7.23901663 20.91472159 7.26768116 22.91146627 7.296875 24.90820312 C7.33802515 28.0436979 7.37492869 31.17904203 7.40136719 34.31469727 C7.42914952 37.34943838 7.47502912 40.38349554 7.5234375 43.41796875 C7.52669037 44.34328903 7.52994324 45.26860931 7.53329468 46.2219696 C7.64323193 52.11049637 8.28596962 57.68182257 11 63 C15.15500985 65.57214895 19.25783363 65.13873133 23.94921875 64.4921875 C26.50047963 63.87988489 28.08184476 62.76470282 30 61 C30.66 61 31.32 61 32 61 C35.9155262 54.28766936 36.28926883 47.01657298 36.30859375 39.4609375 C36.33373498 37.64582986 36.35913325 35.83072577 36.38476562 34.015625 C36.41355197 31.18718245 36.43760705 28.35880097 36.45629883 25.53027344 C36.47798957 22.77769439 36.5174045 20.02578385 36.55859375 17.2734375 C36.55870956 16.4326767 36.55882538 15.59191589 36.5589447 14.72567749 C36.64218541 9.76712089 37.21251964 6.27449188 40 2 C44.02314866 -0.68209911 47.27219919 -0.68843415 52 0 C55.49890004 2.11391877 56.70578686 3.11736059 58 7 C58.11469932 9.19105722 58.16937865 11.38541412 58.19287109 13.5793457 C58.20513733 14.57504074 58.20513733 14.57504074 58.21765137 15.59085083 C58.24244682 17.78581857 58.25900609 19.9807219 58.2734375 22.17578125 C58.27876118 22.92678793 58.28408485 23.67779461 58.28956985 24.45155907 C58.31627585 28.42659865 58.33565896 32.40160709 58.35009766 36.37670898 C58.36343723 39.66214844 58.39129245 42.94696683 58.43212891 46.23217773 C58.4814943 50.2038729 58.50622303 54.17500479 58.51332474 58.14699364 C58.52002873 59.65765725 58.53522889 61.16830872 58.55921555 62.67879677 C58.75836864 75.97844534 58.75836864 75.97844534 55.60986328 79.92578125 C52.14311536 82.68101888 50.42044509 82.82170748 46.15234375 82.5234375 C42.63326764 81.66761863 41.09734138 79.86001097 39 77 C38.30222921 75.34611423 37.62997627 73.68087838 37 72 C36.443125 72.47050781 35.88625 72.94101562 35.3125 73.42578125 C26.3910076 80.704634 19.44877343 82.84728814 7.92578125 82.4140625 C1.12712012 81.69698978 -4.25804904 79.21102824 -8.9375 74.1875 C-14.11259196 66.1896306 -14.45659013 59.2463376 -14.43359375 49.92578125 C-14.4388356 48.68378464 -14.44407745 47.44178802 -14.44947815 46.16215515 C-14.45751129 42.88098436 -14.45046846 39.60023629 -14.43914795 36.3190918 C-14.43749749 34.30943902 -14.44952139 32.30034761 -14.46655273 30.29077148 C-14.49719 26.41883902 -14.50064107 22.54781531 -14.49609375 18.67578125 C-14.50732773 17.47987869 -14.51856171 16.28397614 -14.53013611 15.05183411 C-14.46054408 6.78039422 -14.46054408 6.78039422 -12.09399414 2.77026367 C-8.36314056 -0.38380178 -4.76333489 -0.79536204 0 0 Z " fill="#234974" transform="translate(62,505)"/>
<path d="M0 0 C3.20946947 2.73399251 4.47140536 6.65712345 4.96728516 10.74261475 C5.07910031 13.38151729 5.10242414 16.00719186 5.09375 18.6484375 C5.10458618 19.61600983 5.11542236 20.58358215 5.12658691 21.58047485 C5.16069389 24.65788502 5.1764053 27.73492617 5.1875 30.8125 C5.20215022 34.86232952 5.23598673 38.9113469 5.28125 42.9609375 C5.27822876 43.87684662 5.27520752 44.79275574 5.27209473 45.73641968 C5.33976337 51.61017914 5.97913324 57.13384512 8.6875 62.4375 C12.77806314 64.96975337 16.87843092 64.64680966 21.5078125 63.9765625 C25.97233653 62.8724329 28.79682936 60.63529845 31.5 57 C34.05088027 51.49546888 33.84871872 45.92468038 33.8984375 39.97265625 C33.92649867 38.10220468 33.95516308 36.23176208 33.984375 34.36132812 C34.02564474 31.4274921 34.06255538 28.49382499 34.08886719 25.55981445 C34.11653021 22.71791548 34.16238874 19.87676506 34.2109375 17.03515625 C34.21419037 16.1631105 34.21744324 15.29106476 34.22079468 14.39259338 C34.32194629 9.35970133 34.84366013 5.76943458 37.6875 1.4375 C41.71064866 -1.24459911 44.95969919 -1.25093415 49.6875 -0.5625 C53.18640004 1.55141877 54.39328686 2.55486059 55.6875 6.4375 C55.80219932 8.62855722 55.85687865 10.82291412 55.88037109 13.0168457 C55.89263733 14.01254074 55.89263733 14.01254074 55.90515137 15.02835083 C55.92994682 17.22331857 55.94650609 19.4182219 55.9609375 21.61328125 C55.96626118 22.36428793 55.97158485 23.11529461 55.97706985 23.88905907 C56.00377585 27.86409865 56.02315896 31.83910709 56.03759766 35.81420898 C56.05093723 39.09964844 56.07879245 42.38446683 56.11962891 45.66967773 C56.1689943 49.6413729 56.19372303 53.61250479 56.20082474 57.58449364 C56.20752873 59.09515725 56.22272889 60.60580872 56.24671555 62.11629677 C56.44586864 75.41594534 56.44586864 75.41594534 53.29736328 79.36328125 C49.83061536 82.11851888 48.10794509 82.25920748 43.83984375 81.9609375 C40.32076764 81.10511863 38.78484138 79.29751097 36.6875 76.4375 C35.98972921 74.78361423 35.31747627 73.11837838 34.6875 71.4375 C34.130625 71.90800781 33.57375 72.37851562 33 72.86328125 C23.13175088 80.91457234 15.56297716 82.63395406 2.6875 81.4375 C-3.58039692 80.05741261 -7.96518716 77.54590115 -12.05859375 72.609375 C-16.49661736 64.92233099 -16.76759414 58.07750543 -16.74609375 49.36328125 C-16.7513356 48.12128464 -16.75657745 46.87928802 -16.76197815 45.59965515 C-16.77001129 42.31848436 -16.76296846 39.03773629 -16.75164795 35.7565918 C-16.74999749 33.74693902 -16.76202139 31.73784761 -16.77905273 29.72827148 C-16.80969 25.85633902 -16.81314107 21.98531531 -16.80859375 18.11328125 C-16.81982773 16.91737869 -16.83106171 15.72147614 -16.84263611 14.48933411 C-16.77304408 6.21789422 -16.77304408 6.21789422 -14.40649414 2.20776367 C-10.13338883 -1.40472165 -5.26427515 -1.28049936 0 0 Z " fill="#234974" transform="translate(299.3125,505.5625)"/>
<path d="M0 0 C4.11718206 2.36518969 5.58544209 4.55352105 7 9 C7.26069641 12.25392151 7.26069641 12.25392151 7.2746582 15.98657227 C7.27976913 16.67028397 7.28488007 17.35399567 7.29014587 18.0584259 C7.30400419 20.31117606 7.30308667 22.5636186 7.30078125 24.81640625 C7.30467288 26.39477144 7.3090085 27.9731356 7.31376648 29.55149841 C7.32122257 32.86094553 7.32094379 36.17028599 7.31567383 39.47973633 C7.30990816 43.69019045 7.32674226 47.90020052 7.3500185 52.1105814 C7.36486752 55.37343335 7.36561202 58.63618144 7.36250877 61.8990612 C7.36301733 63.44936941 7.36816619 64.99968415 7.37832069 66.54995918 C7.45264573 79.49411453 6.91588845 93.93985846 -2.71484375 103.74609375 C-13.09505058 112.2582879 -24.82172573 113.03093866 -37.72412109 112.22753906 C-44.77856885 111.52224564 -51.27462756 108.86778241 -56.4375 103.953125 C-62.76661509 96.04173114 -66.54560217 85.85420821 -65.9375 75.6875 C-64.82243592 71.30158128 -63.63273393 69.66400488 -60 67 C-56.16592613 65.66640909 -54.24810508 65.93271727 -50.3125 67 C-45.23770685 70.06402605 -44.59228421 73.76942506 -43.1484375 79.20703125 C-41.35430023 86.13417258 -41.35430023 86.13417258 -37.25 91.8125 C-31.78531827 93.80921063 -28.02088596 93.91511817 -22.6875 91.5 C-18.32814237 87.4447836 -17.1863947 83.33706792 -16.72412109 77.54095459 C-16.62753873 74.02549738 -16.58199492 70.51974842 -16.58930969 67.00344467 C-16.59382557 64.64013853 -16.57968456 62.2775663 -16.56091309 59.91433716 C-16.51810605 54.05030915 -16.50688766 48.18630039 -16.49468994 42.32214355 C-16.48314018 37.35288899 -16.45953094 32.38397286 -16.41999817 27.41485977 C-16.40647783 25.09379878 -16.41058812 22.77320248 -16.41540527 20.45211792 C-16.40606168 19.0225974 -16.39589211 17.59308197 -16.38476562 16.16357422 C-16.38271118 14.92195526 -16.38065674 13.6803363 -16.37854004 12.40109253 C-15.87488237 7.87584773 -14.3523552 4.56040984 -11.375 1.125 C-7.62666215 -0.65052846 -4.0643668 -0.65320181 0 0 Z " fill="#234974" transform="translate(556,475)"/>
<path d="M0 0 C8.064375 -0.0825 16.12875 -0.165 24.4375 -0.25 C26.96591553 -0.28641602 29.49433105 -0.32283203 32.09936523 -0.36035156 C34.1274328 -0.37204572 36.15550982 -0.38223582 38.18359375 -0.390625 C39.21713989 -0.41108887 40.25068604 -0.43155273 41.31555176 -0.45263672 C48.70402575 -0.45615881 55.29379203 0.55212143 60.88157654 5.75042725 C66.36818335 11.69950193 67.40615218 17.09873876 67.25 25.0625 C66.68057261 31.75327182 63.47549236 36.18023899 59 41 C58.01 41.495 58.01 41.495 57 42 C57.763125 42.53625 58.52625 43.0725 59.3125 43.625 C64.45994073 48.17390111 65.77318608 53.55998884 66.2109375 60.19921875 C66.26507812 61.35035156 66.31921875 62.50148438 66.375 63.6875 C66.77433803 69.90015234 67.95574681 75.13388214 70 81 C64.39 81 58.78 81 53 81 C51.8331695 78.66633899 51.77159972 77.0224927 51.60546875 74.421875 C51.53650391 73.50792969 51.46753906 72.59398437 51.39648438 71.65234375 C51.2583391 69.73380284 51.13055005 67.81448512 51.01367188 65.89453125 C50.55298959 60.08096541 49.84368409 56.46179964 46 52 C40.01398682 48.00932455 31.54066135 48.74993811 24.5 48.4375 C21.365 48.293125 18.23 48.14875 15 48 C15 58.89 15 69.78 15 81 C10.05 81 5.1 81 0 81 C0 54.27 0 27.54 0 0 Z M15 12 C15 20.25 15 28.5 15 37 C18.609375 37.04125 22.21875 37.0825 25.9375 37.125 C27.61573853 37.15231201 27.61573853 37.15231201 29.32788086 37.18017578 C40.12566211 37.39494743 40.12566211 37.39494743 49.5 32.875 C51.86815155 28.33604287 52.51307773 24.25754199 51.375 19.25 C49.58459724 16.32025004 47.92246869 14.81842496 45 13 C38.72601267 11.70337595 32.44482691 11.88639797 26.0625 11.9375 C22.411875 11.958125 18.76125 11.97875 15 12 Z " fill="#234974" transform="translate(734,716)"/>
<path d="M0 0 C8.064375 -0.0825 16.12875 -0.165 24.4375 -0.25 C26.96591553 -0.28641602 29.49433105 -0.32283203 32.09936523 -0.36035156 C34.1274328 -0.37204572 36.15550982 -0.38223582 38.18359375 -0.390625 C39.21713989 -0.41108887 40.25068604 -0.43155273 41.31555176 -0.45263672 C48.70402575 -0.45615881 55.29379203 0.55212143 60.88157654 5.75042725 C66.36818335 11.69950193 67.40615218 17.09873876 67.25 25.0625 C66.68057261 31.75327182 63.47549236 36.18023899 59 41 C58.01 41.495 58.01 41.495 57 42 C57.763125 42.53625 58.52625 43.0725 59.3125 43.625 C64.45994073 48.17390111 65.77318608 53.55998884 66.2109375 60.19921875 C66.26507813 61.35035156 66.31921875 62.50148438 66.375 63.6875 C66.77433803 69.90015234 67.95574681 75.13388214 70 81 C64.39 81 58.78 81 53 81 C51.8331695 78.66633899 51.77159972 77.0224927 51.60546875 74.421875 C51.53650391 73.50792969 51.46753906 72.59398437 51.39648438 71.65234375 C51.2583391 69.73380284 51.13055005 67.81448512 51.01367188 65.89453125 C50.55298959 60.08096541 49.84368409 56.46179964 46 52 C40.01398682 48.00932455 31.54066135 48.74993811 24.5 48.4375 C21.365 48.293125 18.23 48.14875 15 48 C15 58.89 15 69.78 15 81 C10.05 81 5.1 81 0 81 C0 54.27 0 27.54 0 0 Z M15 12 C15 20.25 15 28.5 15 37 C18.609375 37.04125 22.21875 37.0825 25.9375 37.125 C27.61573853 37.15231201 27.61573853 37.15231201 29.32788086 37.18017578 C40.12566211 37.39494743 40.12566211 37.39494743 49.5 32.875 C51.86815155 28.33604287 52.51307773 24.25754199 51.375 19.25 C49.58459724 16.32025004 47.92246869 14.81842496 45 13 C38.72601267 11.70337595 32.44482691 11.88639797 26.0625 11.9375 C22.411875 11.958125 18.76125 11.97875 15 12 Z " fill="#234974" transform="translate(52,716)"/>
<path d="M0 0 C7.239375 -0.0825 14.47875 -0.165 21.9375 -0.25 C24.20488037 -0.28641602 26.47226074 -0.32283203 28.80834961 -0.36035156 C30.63133806 -0.37204802 32.45433707 -0.38223758 34.27734375 -0.390625 C35.20293091 -0.41108887 36.12851807 -0.43155273 37.08215332 -0.45263672 C46.81058495 -0.45779017 54.94497281 3.31547752 62 10 C70.60070674 20.56658257 71.60984421 33.88053097 71 47 C69.8638661 57.11015354 66.07568715 66.56728276 59 74 C51.36292651 80.01801391 44.08460235 81.29877297 34.5703125 81.1953125 C33.69173584 81.19329834 32.81315918 81.19128418 31.90795898 81.18920898 C28.64691904 81.17879752 25.38595391 81.15087513 22.125 81.125 C11.173125 81.063125 11.173125 81.063125 0 81 C0 54.27 0 27.54 0 0 Z M15 12 C15 30.81 15 49.62 15 69 C32.48296061 69.87530448 32.48296061 69.87530448 48 63 C55.03633185 55.64383489 55.89975303 47.85761908 56 38 C55.34281556 29.18538333 53.62846652 23.47070711 47.125 17.25 C37.81747237 10.54858011 25.96493304 12 15 12 Z " fill="#234974" transform="translate(288,716)"/>
<path d="M0 0 C3.63484294 1.40437113 4.74765957 2.54009898 6.62890625 5.96875 C8.56503052 10.7144057 8.32928208 15.38787669 8.1875 20.4375 C8.16719727 21.82098633 8.16719727 21.82098633 8.14648438 23.23242188 C8.11140953 25.48890383 8.06226387 27.74413226 8 30 C8.74765625 29.97679687 9.4953125 29.95359375 10.265625 29.9296875 C11.25046875 29.91164063 12.2353125 29.89359375 13.25 29.875 C14.22453125 29.85179687 15.1990625 29.82859375 16.203125 29.8046875 C19.05069951 30.00354047 20.63037132 30.44561054 23 32 C24.5940192 35.1880384 24.51782611 38.53836793 24 42 C21.68294405 44.56531195 19.38523561 45.52982839 16 46 C14.61994194 46.02138166 13.23958101 46.0265161 11.859375 46.01953125 C10.58578125 46.01308594 9.3121875 46.00664062 8 46 C8.06690369 52.49654973 8.15667148 58.99249306 8.26245117 65.48852539 C8.29573508 67.69906406 8.32375612 69.90968843 8.34643555 72.12036133 C8.37991759 75.29545666 8.43223052 78.46976417 8.48828125 81.64453125 C8.49467117 82.63524124 8.5010611 83.62595123 8.50764465 84.64668274 C8.53733589 86.02777473 8.53733589 86.02777473 8.56762695 87.43676758 C8.58428154 88.65255241 8.58428154 88.65255241 8.60127258 89.89289856 C9.10116023 92.53458794 9.82926612 93.43982573 12 95 C15.44901062 95.1424909 18.75757773 95.01819113 22.1953125 94.79492188 C27.5579531 94.59209137 27.5579531 94.59209137 29.97265625 96.8203125 C31.38417399 99.81509157 31.46830314 101.72187805 31 105 C28.57815368 108.94671252 26.43418603 110.73308971 22 112 C12.92938152 113.73992118 2.33238334 114.70376479 -6 110 C-11.85937925 105.45392989 -13.06407351 100.07518261 -14 93 C-14.23461531 89.24233669 -14.23510122 85.50596749 -14.1953125 81.7421875 C-14.1924826 80.71312286 -14.18965271 79.68405823 -14.18673706 78.62380981 C-14.17564479 75.37408244 -14.15056115 72.12464246 -14.125 68.875 C-14.11495603 66.65625401 -14.10583267 64.43750366 -14.09765625 62.21875 C-14.07574149 56.81240385 -14.04237499 51.40622247 -14 46 C-16.99987793 45.71313477 -16.99987793 45.71313477 -19.99975586 45.42626953 C-22 45 -22 45 -24.5625 42.875 C-26.46763575 39.0647285 -26.19947974 37.04824414 -25 33 C-23.375 31.0625 -23.375 31.0625 -21 30 C-18.66705307 29.95753737 -16.33287546 29.95377753 -14 30 C-14.02356567 29.09290283 -14.02356567 29.09290283 -14.04760742 28.16748047 C-14.1103188 25.40341704 -14.14910411 22.63950379 -14.1875 19.875 C-14.22520508 18.44800781 -14.22520508 18.44800781 -14.26367188 16.9921875 C-14.33020156 10.60533764 -13.7940815 5.99365875 -9.25 1.125 C-5.99319286 -0.50340357 -3.59414313 -0.37833086 0 0 Z " fill="#234974" transform="translate(1002,297)"/>
<path d="M0 0 C1.21913086 -0.0309375 1.21913086 -0.0309375 2.46289062 -0.0625 C12.69613479 -0.12762805 19.3373239 2.83810714 26.703125 9.91796875 C30.58212145 14.20641482 31.92855831 17.87010543 32 23.6875 C31.9071875 25.4509375 31.9071875 25.4509375 31.8125 27.25 C26.8625 27.25 21.9125 27.25 16.8125 27.25 C16.4 26.0125 15.9875 24.775 15.5625 23.5 C14.22643832 19.93926959 12.86800541 17.6371136 9.8125 15.25 C6.36584258 14.10111419 3.56898095 14.0460653 -0.0625 14 C-1.27679688 13.97421875 -2.49109375 13.9484375 -3.7421875 13.921875 C-7.42691521 14.27280145 -9.26566773 15.02897621 -12.1875 17.25 C-13.75180248 20.37860495 -13.54377284 22.80602925 -13.1875 26.25 C-9.25422736 30.33751863 -5.00723963 31.43210197 0.3125 32.75 C1.92467969 33.17893454 3.53665778 33.60862747 5.1484375 34.0390625 C7.96354682 34.77408697 10.78130841 35.4956978 13.6015625 36.2109375 C22.12636487 38.54677328 27.68999775 41.71733545 32.75 49.0625 C35.19747308 56.40491924 35.36612404 62.95393132 32.8125 70.25 C28.81746808 77.93275369 22.38226905 82.10037013 14.31225586 84.65014648 C10.02526607 85.6788733 5.82896334 85.73840971 1.4375 85.6875 C0.05268433 85.67505249 0.05268433 85.67505249 -1.36010742 85.66235352 C-11.39558158 85.41370099 -19.17044026 83.26454434 -26.53125 76.16015625 C-31.81947015 70.06124197 -32.74774994 64.16550107 -33.1875 56.25 C-27.9075 56.25 -22.6275 56.25 -17.1875 56.25 C-16.8471875 58.0753125 -16.8471875 58.0753125 -16.5 59.9375 C-15.41820358 64.24183081 -13.71782315 66.45858169 -10.1875 69.25 C-6.01147249 71.36022667 -2.39736895 71.54845961 2.25 71.5625 C4.16619141 71.58763672 4.16619141 71.58763672 6.12109375 71.61328125 C10.07872057 71.22380052 12.46157143 70.35728498 15.8125 68.25 C17.85281755 65.18952368 18.12843524 64.31504006 18.1875 60.8125 C18.23003906 59.66974609 18.23003906 59.66974609 18.2734375 58.50390625 C17.62568679 55.33651508 16.28071918 54.31167999 13.8125 52.25 C10.81429697 51.07764772 10.81429697 51.07764772 7.4296875 50.3203125 C6.17929688 49.99933594 4.92890625 49.67835938 3.640625 49.34765625 C1.02999283 48.70146657 -1.58282263 48.06444829 -4.1953125 47.42578125 C-22.94559069 42.60373225 -22.94559069 42.60373225 -27.75 34.625 C-30.39803779 28.40786779 -31.23536902 22.84529654 -29.0625 16.25 C-26.19625417 9.37101 -21.83723222 5.08019761 -15.1171875 1.9765625 C-10.07321534 0.07741509 -5.33303545 0.03304747 0 0 Z " fill="#234974" transform="translate(160.1875,713.75)"/>
<path d="M0 0 C2.87029869 1.79393668 4.49131638 2.98263276 6 6 C6.08449628 7.7404417 6.10723024 9.48409722 6.09765625 11.2265625 C6.09443359 12.2578125 6.09121094 13.2890625 6.08789062 14.3515625 C6.07532227 15.97191406 6.07532227 15.97191406 6.0625 17.625 C6.05798828 18.71296875 6.05347656 19.8009375 6.04882812 20.921875 C6.03701776 23.61463789 6.02054778 26.30729188 6 29 C6.81984375 28.96519531 7.6396875 28.93039062 8.484375 28.89453125 C9.56203125 28.86746094 10.6396875 28.84039062 11.75 28.8125 C13.35101563 28.76029297 13.35101563 28.76029297 14.984375 28.70703125 C18.35426215 29.03441666 19.69119008 29.54792264 22 32 C22.69328139 34.70761865 22.48101248 37.25708359 22 40 C20.18836733 42.67431489 19.12238923 42.95920359 16 44 C14.27204648 44.06802967 12.54164635 44.08495645 10.8125 44.0625 C9.91144531 44.05347656 9.01039063 44.04445313 8.08203125 44.03515625 C7.39496094 44.02355469 6.70789063 44.01195312 6 44 C6.09368215 49.89016999 6.19980963 55.7799361 6.31738281 61.66967773 C6.35562217 63.67254524 6.39048381 65.67548025 6.421875 67.6784668 C6.46763496 70.56062917 6.52561154 73.44232894 6.5859375 76.32421875 C6.59748871 77.21711105 6.60903992 78.11000336 6.62094116 79.029953 C6.63783044 86.06080115 6.63783044 86.06080115 10 92 C13.371031 91.95852199 16.73099412 91.87181138 20.09765625 91.69726562 C25.52830115 91.56372518 25.52830115 91.56372518 27.9765625 93.828125 C29.40235495 96.8538525 29.54030611 98.69062509 29 102 C25.79037304 106.1536349 23.00784599 107.70209496 18 109 C14.87029641 109.32334309 11.76960756 109.37005565 8.625 109.375 C7.81289062 109.39949219 7.00078125 109.42398438 6.1640625 109.44921875 C-0.87278761 109.48304976 -6.11020925 107.58560225 -11.375 102.875 C-15.45815562 95.65095544 -15.28282985 87.05411526 -15.1953125 78.9609375 C-15.1924826 77.95406891 -15.18965271 76.94720032 -15.18673706 75.90982056 C-15.17564829 72.73141999 -15.15056543 69.55331368 -15.125 66.375 C-15.11495557 64.20443119 -15.1058323 62.0338579 -15.09765625 59.86328125 C-15.07574616 54.57542245 -15.04238336 49.28773226 -15 44 C-15.94230469 44.01804687 -16.88460937 44.03609375 -17.85546875 44.0546875 C-20.97541653 44.00042754 -22.44175464 43.70549691 -25 42 C-26.59839645 38.80320709 -26.49671024 35.46987584 -26 32 C-24.4375 30 -24.4375 30 -22 29 C-19.66700823 28.96007715 -17.33292679 28.95644477 -15 29 C-15.02356567 28.14619751 -15.02356567 28.14619751 -15.04760742 27.27514648 C-15.11048439 24.66270126 -15.14915532 22.0504159 -15.1875 19.4375 C-15.21263672 18.54224609 -15.23777344 17.64699219 -15.26367188 16.72460938 C-15.32636174 11.01983126 -14.82154523 7.00511869 -12 2 C-7.98141405 -0.6790573 -4.72358279 -0.69610694 0 0 Z " fill="#234974" transform="translate(248,478)"/>
<path d="M0 0 C3.73885822 0.81653225 5.27191412 2.3930268 7.37890625 5.51953125 C8.59389246 10.62554924 8.49545155 15.68123834 8.44140625 20.89453125 C8.43689453 21.72597656 8.43238281 22.55742187 8.42773438 23.4140625 C8.41603789 25.44925022 8.3981056 27.48440048 8.37890625 29.51953125 C9.19875 29.46152344 10.01859375 29.40351563 10.86328125 29.34375 C19.63824171 28.97637725 19.63824171 28.97637725 23.19140625 31.58203125 C24.76588296 35.47678942 24.7068018 37.53584459 23.37890625 41.51953125 C19.85031967 44.25418585 16.98478757 44.65301664 12.66015625 44.5859375 C11.85642578 44.5763501 11.05269531 44.5667627 10.22460938 44.55688477 C9.61552734 44.54455811 9.00644531 44.53223145 8.37890625 44.51953125 C8.44581493 50.87367388 8.5355846 57.22719675 8.64135742 63.58081055 C8.67463947 65.742845 8.7026611 67.90496702 8.7253418 70.06713867 C8.75882733 73.17274343 8.81114025 76.27754323 8.8671875 79.3828125 C8.87357742 80.35164871 8.87996735 81.32048492 8.8865509 82.31867981 C8.91624214 83.66974068 8.91624214 83.66974068 8.9465332 85.0480957 C8.96318779 86.2372332 8.96318779 86.2372332 8.98017883 87.45039368 C9.48301368 90.05978153 10.24575773 90.96394953 12.37890625 92.51953125 C14.95590862 92.65882868 17.31902703 92.66581006 19.87890625 92.51953125 C26.77041684 92.12573064 26.77041684 92.12573064 29.31640625 93.7734375 C31.18386018 96.84237833 31.1153081 100.11281242 30.37890625 103.51953125 C26.31373646 107.93314416 21.68387434 109.58269835 15.796875 109.85546875 C14.05349912 109.87926008 12.30994257 109.89196534 10.56640625 109.89453125 C9.70208984 109.91902344 8.83777344 109.94351563 7.94726562 109.96875 C1.9766831 109.9957866 -2.68689751 109.0154492 -7.62109375 105.51953125 C-11.67509501 100.52999124 -12.75019182 96.67515052 -12.73461914 90.38378906 C-12.73454361 89.36303284 -12.73446808 88.34227661 -12.73439026 87.29058838 C-12.72922897 86.19567078 -12.72406769 85.10075317 -12.71875 83.97265625 C-12.71733505 82.84631775 -12.7159201 81.71997925 -12.71446228 80.55950928 C-12.70886574 76.9628229 -12.69631385 73.36619881 -12.68359375 69.76953125 C-12.6785783 67.33073007 -12.67401547 64.89192791 -12.66992188 62.453125 C-12.65889745 56.47523917 -12.64216273 50.49738966 -12.62109375 44.51953125 C-14.26271484 44.58527344 -14.26271484 44.58527344 -15.9375 44.65234375 C-19.62109375 44.51953125 -19.62109375 44.51953125 -22.55859375 42.39453125 C-24.62109375 39.51953125 -24.62109375 39.51953125 -25.18359375 36.45703125 C-24.62109375 33.51953125 -24.62109375 33.51953125 -23.12109375 31.14453125 C-19.52760416 28.80876302 -16.87040137 29.4072528 -12.62109375 29.51953125 C-12.64727783 28.85421387 -12.67346191 28.18889648 -12.70043945 27.50341797 C-12.80484835 24.4673659 -12.86955723 21.43169214 -12.93359375 18.39453125 C-12.97548828 17.3478125 -13.01738281 16.30109375 -13.06054688 15.22265625 C-13.19878157 6.4862235 -13.19878157 6.4862235 -10.4140625 2.8203125 C-6.65775775 -0.27404205 -4.68640116 -0.30032079 0 0 Z " fill="#234974" transform="translate(927.62109375,477.48046875)"/>
<path d="M0 0 C4.95 0 9.9 0 15 0 C15.02505615 1.36092773 15.0501123 2.72185547 15.07592773 4.12402344 C15.17083694 9.22322344 15.27084599 14.32231337 15.37231445 19.42138672 C15.41535023 21.61895148 15.45704398 23.81654298 15.49731445 26.01416016 C15.55578558 29.19181341 15.61924907 32.36933587 15.68359375 35.546875 C15.70030624 36.5130072 15.71701874 37.4791394 15.73423767 38.47454834 C15.41745794 53.09366937 15.41745794 53.09366937 21 66 C25.57591412 68.83239064 29.15354822 69.43206661 34.5 69.4375 C36.40265625 69.46650391 36.40265625 69.46650391 38.34375 69.49609375 C43.48766607 68.79814787 46.67760486 66.73279364 49.8125 62.625 C51.88305877 58.04797536 52.12361572 53.33424308 52.20532227 48.36181641 C52.22526749 47.28114899 52.24521271 46.20048157 52.26576233 45.08706665 C52.29083107 43.3617421 52.29083107 43.3617421 52.31640625 41.6015625 C52.33718735 40.41146576 52.35796844 39.22136902 52.37937927 37.99520874 C52.44460095 34.20519615 52.50363234 30.41511609 52.5625 26.625 C52.60571126 24.05077436 52.64932638 21.47655547 52.69335938 18.90234375 C52.80025428 12.6016311 52.90159864 6.30085079 53 0 C57.95 0 62.9 0 68 0 C68.06804704 7.53716913 68.12297155 15.07422214 68.15543652 22.61162472 C68.17102599 26.11237531 68.19213941 29.61290302 68.22631836 33.11352539 C68.26545205 37.14731871 68.27976462 41.18088156 68.29296875 45.21484375 C68.30845261 46.45894516 68.32393646 47.70304657 68.33988953 48.98484802 C68.34172926 58.56979842 67.09678239 66.33547357 61 74 C53.31889433 81.68110567 45.17385181 83.40441896 34.5625 83.5 C24.36556457 83.39944553 15.19176403 82.12092555 7.5 74.8359375 C1.71928409 67.76058208 -0.13348554 60.06849316 -0.11352539 51.08642578 C-0.11344986 49.94569611 -0.11337433 48.80496643 -0.11329651 47.62966919 C-0.10555458 45.80591263 -0.10555458 45.80591263 -0.09765625 43.9453125 C-0.0962413 42.68862762 -0.09482635 41.43194275 -0.09336853 40.13717651 C-0.08873074 36.8130806 -0.0797618 33.48905458 -0.06866455 30.16497803 C-0.05839401 26.76624146 -0.05385887 23.36749765 -0.04882812 19.96875 C-0.03781699 13.31247834 -0.02056155 6.65624873 0 0 Z " fill="#234974" transform="translate(205,716)"/>
<path d="M0 0 C11.323125 -0.1546875 11.323125 -0.1546875 22.875 -0.3125 C25.23769043 -0.35802002 27.60038086 -0.40354004 30.03466797 -0.45043945 C31.9371601 -0.46506185 33.83966805 -0.47779836 35.7421875 -0.48828125 C36.70584229 -0.51386108 37.66949707 -0.53944092 38.66235352 -0.5657959 C47.1474938 -0.57117577 53.65118772 1.93619302 59.9375 7.6875 C64.64962285 15.25545487 66.3021961 23.56498092 64.53125 32.31640625 C62.74245269 38.60913963 59.72797184 43.44202473 54.28393555 47.17749023 C46.65501805 51.09411774 38.79520411 50.44157575 30.4375 50.25 C25.343125 50.1675 20.24875 50.085 15 50 C15 60.23 15 70.46 15 81 C10.05 81 5.1 81 0 81 C0 54.27 0 27.54 0 0 Z M15 12 C15 20.58 15 29.16 15 38 C18.135 38.04125 21.27 38.0825 24.5 38.125 C25.47130859 38.14320801 26.44261719 38.16141602 27.44335938 38.18017578 C35.26639684 38.22950738 42.11009031 37.71142758 48 32 C49.98436435 28.03127131 49.53638294 23.31601157 49 19 C46.16807432 14.6636138 43.31188814 13.54688159 38.3671875 12.38598633 C33.92588692 11.66180149 29.4866771 11.79518348 25 11.875 C21.7 11.91625 18.4 11.9575 15 12 Z " fill="#234974" transform="translate(402,716)"/>
<path d="M0 0 C4.62 0 9.24 0 14 0 C14.33 8.25 14.66 16.5 15 25 C16.98 23.68 18.96 22.36 21 21 C27.66718503 18.77760499 38.10859892 18.60467284 44.5625 21.5 C51.8244114 26.04672771 56.53279371 33.02785046 58.5546875 41.2578125 C60.60500513 53.88345266 59.08113554 65.57699573 51.6171875 76.0859375 C48.61034164 79.64476472 45.43790246 81.52069918 41 83 C23.3861361 84.12507403 23.3861361 84.12507403 16 79 C15.34 78.34 14.68 77.68 14 77 C13.67 78.32 13.34 79.64 13 81 C8.71 81 4.42 81 0 81 C0 54.27 0 27.54 0 0 Z M18 35 C13.2278828 41.47534874 12.30078198 48.16875817 13 56 C14.54713661 63.50422168 17.564006 67.70933733 24 72 C28.86217986 72.71970304 32.90340041 72.507685 37.375 70.4375 C42.11820239 66.03309778 44.68007369 60.96216433 45.203125 54.484375 C45.33353057 46.87738323 44.33111346 41.45907158 40.0625 35.125 C36.72687957 31.68830016 33.88311483 30.69911394 29.125 30.625 C24.30835863 30.74541603 21.61719162 31.64117921 18 35 Z " fill="#234974" transform="translate(877,716)"/>
<path d="M0 0 C3.6016391 2.70122933 5.11047246 4.66355324 6 9 C6.54269531 8.43410156 7.08539062 7.86820313 7.64453125 7.28515625 C8.35996094 6.55167969 9.07539062 5.81820313 9.8125 5.0625 C10.52019531 4.33160156 11.22789062 3.60070312 11.95703125 2.84765625 C16.0030809 -0.81158177 20.66264116 -0.3267717 25.84765625 -0.2890625 C31.13927066 0.19616608 35.56343807 2.06296102 39.71484375 5.36328125 C41.81523332 8.03824548 41.53673007 10.47584794 41.40234375 13.765625 C41 16 41 16 39.0625 19.125 C34.80398553 21.73225376 31.72631223 21.11519727 27 20 C26.01 19.67 25.02 19.34 24 19 C19.70960765 18.7659786 16.65288221 18.65917344 13 21 C11.70725257 22.75294368 11.70725257 22.75294368 10.8125 24.8125 C10.48894531 25.47894531 10.16539062 26.14539063 9.83203125 26.83203125 C6.50267176 35.50712288 7.01352897 45.76864469 6.890625 54.93359375 C6.86677734 56.17488037 6.84292969 57.41616699 6.81835938 58.69506836 C6.77327111 61.20471367 6.74808905 63.71480631 6.74414062 66.22485352 C6.54284962 76.13095489 6.54284962 76.13095489 3.765625 79.80078125 C0.01716429 82.78154874 -2.00107466 82.80964 -6.62109375 82.52734375 C-10.28401755 81.71536557 -11.87831465 80.01142437 -14 77 C-15.14655452 73.64119424 -15.13894495 70.41921972 -15.16113281 66.88964844 C-15.17074036 65.65446472 -15.1803479 64.41928101 -15.19024658 63.14666748 C-15.19509578 61.80090521 -15.19937431 60.45514078 -15.203125 59.109375 C-15.20595238 58.42797707 -15.20877975 57.74657913 -15.21169281 57.04453278 C-15.22666287 53.4367484 -15.23590535 49.82900376 -15.24023438 46.22119141 C-15.24570767 42.51141354 -15.26971735 38.80200481 -15.29820633 35.09234238 C-15.31692005 32.22512789 -15.32204298 29.35800066 -15.32357025 26.49073029 C-15.32657898 25.12410724 -15.33454675 23.75748507 -15.34775543 22.39092255 C-15.41424933 14.98106056 -15.44862173 8.66895157 -12 2 C-7.98850232 -0.67433178 -4.71559339 -0.81902411 0 0 Z " fill="#234974" transform="translate(858,505)"/>
<path d="M0 0 C1.26360352 -0.0299707 1.26360352 -0.0299707 2.55273438 -0.06054688 C9.83770463 -0.05493874 16.24884218 1.62384218 21.5 6.875 C24.9083173 12.46464038 25.33990041 16.83354245 25.2578125 23.23828125 C25.2549826 24.07465622 25.25215271 24.91103119 25.24923706 25.77275085 C25.2380832 28.43198226 25.21298763 31.09087118 25.1875 33.75 C25.17746399 35.55793783 25.16833923 37.36588096 25.16015625 39.17382812 C25.13815959 43.59518312 25.10366294 48.01628358 25.0625 52.4375 C27.0425 52.4375 29.0225 52.4375 31.0625 52.4375 C31.0625 55.7375 31.0625 59.0375 31.0625 62.4375 C28.25042765 63.84353618 25.82240534 63.68307505 22.6875 63.75 C20.97433594 63.80607422 20.97433594 63.80607422 19.2265625 63.86328125 C15.48333791 63.35956337 14.38108198 62.33287207 12.0625 59.4375 C11.010625 59.870625 11.010625 59.870625 9.9375 60.3125 C8.98875 60.68375 8.04 61.055 7.0625 61.4375 C6.1859375 61.78296875 5.309375 62.1284375 4.40625 62.484375 C-3.09090867 64.62141555 -13.53601834 65.08538393 -20.75 61.8125 C-25.04897391 58.60934297 -27.25099116 55.49702652 -28.9375 50.4375 C-29.54027077 44.4561593 -28.96307945 39.75834663 -25.9375 34.4375 C-19.87584034 28.20265006 -11.4369631 26.96931653 -3.1875 25.875 C-1.5251733 25.65088045 0.13634004 25.42062386 1.796875 25.18359375 C2.52100586 25.08747803 3.24513672 24.9913623 3.99121094 24.89233398 C6.25428556 24.39538584 8.03882286 23.55052243 10.0625 22.4375 C10.39630814 19.06313814 10.39630814 19.06313814 10.0625 15.4375 C7.83420306 13.12981006 6.40467019 12.48974332 3.22265625 12.00390625 C-3.18936392 11.92465679 -3.18936392 11.92465679 -9.0625 14.1875 C-11.19636216 16.5734921 -11.19636216 16.5734921 -12.9375 20.4375 C-17.5575 20.4375 -22.1775 20.4375 -26.9375 20.4375 C-25.91638679 13.17625052 -23.88752648 8.01922771 -17.9375 3.4375 C-11.83999024 0.57620901 -6.68512985 -0.05600642 0 0 Z M0.1875 34.75 C-0.87404297 34.92692383 -0.87404297 34.92692383 -1.95703125 35.10742188 C-6.91277651 36.00720803 -11.17370044 37.11249148 -14.3125 41.25 C-15.20696789 44.38063761 -14.92473809 46.34415399 -13.9375 49.4375 C-10.84450742 52.53049258 -7.6961545 52.69801933 -3.5 52.875 C1.44801157 52.72849091 4.33533083 51.88513149 8.0625 48.4375 C12.00081932 43.97407144 11.35749113 39.06418269 11.0625 33.4375 C7.34662896 33.4375 3.82974249 34.09045879 0.1875 34.75 Z " fill="#234974" transform="translate(623.9375,735.5625)"/>
<path d="M0 0 C1.26360352 -0.0299707 1.26360352 -0.0299707 2.55273438 -0.06054688 C9.83770463 -0.05493874 16.24884218 1.62384218 21.5 6.875 C24.9083173 12.46464038 25.33990041 16.83354245 25.2578125 23.23828125 C25.2549826 24.07465622 25.25215271 24.91103119 25.24923706 25.77275085 C25.2380832 28.43198226 25.21298763 31.09087118 25.1875 33.75 C25.17746399 35.55793783 25.16833923 37.36588096 25.16015625 39.17382812 C25.13815959 43.59518312 25.10366294 48.01628358 25.0625 52.4375 C27.0425 52.4375 29.0225 52.4375 31.0625 52.4375 C31.0625 55.7375 31.0625 59.0375 31.0625 62.4375 C28.25042765 63.84353618 25.82240534 63.68307505 22.6875 63.75 C20.97433594 63.80607422 20.97433594 63.80607422 19.2265625 63.86328125 C15.48333791 63.35956337 14.38108198 62.33287207 12.0625 59.4375 C11.010625 59.870625 11.010625 59.870625 9.9375 60.3125 C8.98875 60.68375 8.04 61.055 7.0625 61.4375 C6.1859375 61.78296875 5.309375 62.1284375 4.40625 62.484375 C-3.09090867 64.62141555 -13.53601834 65.08538393 -20.75 61.8125 C-25.04897391 58.60934297 -27.25099116 55.49702652 -28.9375 50.4375 C-29.54027077 44.4561593 -28.96307945 39.75834663 -25.9375 34.4375 C-19.87584034 28.20265006 -11.4369631 26.96931653 -3.1875 25.875 C-1.5251733 25.65088045 0.13634004 25.42062386 1.796875 25.18359375 C2.52100586 25.08747803 3.24513672 24.9913623 3.99121094 24.89233398 C6.25428556 24.39538584 8.03882286 23.55052243 10.0625 22.4375 C10.39630814 19.06313814 10.39630814 19.06313814 10.0625 15.4375 C7.83420306 13.12981006 6.40467019 12.48974332 3.22265625 12.00390625 C-3.18936392 11.92465679 -3.18936392 11.92465679 -9.0625 14.1875 C-11.19636216 16.5734921 -11.19636216 16.5734921 -12.9375 20.4375 C-17.5575 20.4375 -22.1775 20.4375 -26.9375 20.4375 C-25.91638679 13.17625052 -23.88752648 8.01922771 -17.9375 3.4375 C-11.83999024 0.57620901 -6.68512985 -0.05600642 0 0 Z M0.1875 34.75 C-0.87404297 34.92692383 -0.87404297 34.92692383 -1.95703125 35.10742188 C-6.91277651 36.00720803 -11.17370044 37.11249148 -14.3125 41.25 C-15.20696789 44.38063761 -14.92473809 46.34415399 -13.9375 49.4375 C-10.84450742 52.53049258 -7.6961545 52.69801933 -3.5 52.875 C1.44801157 52.72849091 4.33533083 51.88513149 8.0625 48.4375 C12.00081932 43.97407144 11.35749113 39.06418269 11.0625 33.4375 C7.34662896 33.4375 3.82974249 34.09045879 0.1875 34.75 Z " fill="#234974" transform="translate(500.9375,735.5625)"/>
<path d="M0 0 C1.7421875 1.1171875 1.7421875 1.1171875 3.375 2.4375 C3.99632812 2.93507813 4.61765625 3.43265625 5.2578125 3.9453125 C10.97723035 9.09039551 13.53519706 15.07828823 15.375 22.4375 C15.375 26.0675 15.375 29.6975 15.375 33.4375 C1.185 33.4375 -13.005 33.4375 -27.625 33.4375 C-25.82535546 42.2805559 -25.82535546 42.2805559 -20.625 48.4375 C-16.44937724 50.52531138 -11.17316058 49.88077867 -6.625 49.4375 C-2.53272293 47.14582484 -1.75241391 45.69232781 0.375 41.4375 C4.995 41.4375 9.615 41.4375 14.375 41.4375 C11.79898555 50.06714842 9.1109224 54.64736039 1.375 59.421875 C-5.89743757 63.11490971 -16.950234 62.70063122 -24.71875 60.6015625 C-31.79917195 57.34544253 -37.34115784 51.91407266 -40.5 44.75 C-43.80629427 34.29718148 -43.37687071 23.07013293 -38.8125 13.125 C-31.51252857 -0.31235481 -14.17404162 -6.51390867 0 0 Z M-25.625 15.4375 C-27.78586656 18.87782703 -27.625 19.9871972 -27.625 24.4375 C-18.055 24.4375 -8.485 24.4375 1.375 24.4375 C-0.48884153 15.8792253 -0.48884153 15.8792253 -6.45703125 10.3359375 C-14.04292749 7.19223275 -20.59249001 9.20405013 -25.625 15.4375 Z " fill="#234974" transform="translate(851.625,737.5625)"/>
<path d="M0 0 C7.30568771 4.49192543 12.95243168 10.75705283 14.9765625 19.1953125 C16.43375964 29.68141743 16.75539593 40.81386067 10.48828125 49.75390625 C5.35082679 55.91347207 0.54011399 60.41795854 -7.63330078 61.27246094 C-16.43031775 61.88838602 -25.06372235 62.17648912 -32.625 57.0625 C-34.23375 56.010625 -34.23375 56.010625 -35.875 54.9375 C-44.2433953 46.1887231 -45.07490042 36.29744172 -44.90625 24.828125 C-44.57692355 16.39078132 -41.55329115 9.99079115 -35.625 4.0625 C-26.13424519 -3.20701433 -11.08609232 -5.00773641 0 0 Z M-25.625 13.0625 C-31.35149817 20.64624082 -31.31123051 27.91275988 -30.625 37.0625 C-29.12619188 42.53640792 -26.38855202 45.9285842 -21.625 49.0625 C-17.90782296 50.92108852 -13.68185692 50.49939228 -9.625 50.0625 C-4.17196725 47.5379478 -2.14750244 44.29435691 0.375 39.0625 C2.7726428 31.29413732 1.86115781 23.49832533 -1.41015625 16.1640625 C-3.44690138 12.6406899 -6.06205918 10.84397041 -9.625 9.0625 C-16.04924915 8.3576813 -20.64344434 8.55537821 -25.625 13.0625 Z " fill="#234974" transform="translate(987.625,737.9375)"/>
<path d="M0 0 C5.30668749 4.13122768 6.52017928 8.04094655 7.81640625 14.4140625 C2.86640625 14.4140625 -2.08359375 14.4140625 -7.18359375 14.4140625 C-7.84359375 13.0940625 -8.50359375 11.7740625 -9.18359375 10.4140625 C-13.60516609 7.3693833 -19.04397951 7.74333894 -24.18359375 8.4140625 C-26.88460981 10.18529476 -26.88460981 10.18529476 -28.18359375 12.4140625 C-26.5879103 15.96197406 -25.72341352 17.20469002 -22.03125 18.63671875 C-20.78214844 18.91386719 -19.53304687 19.19101562 -18.24609375 19.4765625 C-16.89520011 19.79944543 -15.54494403 20.12500654 -14.1953125 20.453125 C-13.52161621 20.61200195 -12.84791992 20.77087891 -12.15380859 20.93457031 C2.56477585 24.51663969 2.56477585 24.51663969 6.81640625 30.4140625 C9.71313266 35.33849739 10.37470143 39.35498428 9.5703125 44.91796875 C7.93124615 50.3447221 4.37987317 53.65880662 -0.203125 56.796875 C-8.89083153 61.14833571 -20.86368244 60.7975664 -30.19921875 58.75390625 C-35.46414633 56.68554184 -39.15292046 53.15013161 -42.18359375 48.4140625 C-43.79494662 44.67865357 -44.18359375 42.51536609 -44.18359375 38.4140625 C-39.56359375 38.4140625 -34.94359375 38.4140625 -30.18359375 38.4140625 C-29.19359375 40.3940625 -28.20359375 42.3740625 -27.18359375 44.4140625 C-24.78168753 46.91604814 -23.56224833 47.36959927 -20.08984375 47.77734375 C-18.96578125 47.76058594 -17.84171875 47.74382813 -16.68359375 47.7265625 C-14.9975 47.72076172 -14.9975 47.72076172 -13.27734375 47.71484375 C-10.33187814 47.42847904 -8.62490694 47.03967626 -6.18359375 45.4140625 C-5.10248827 43.09740789 -5.09271949 41.84246973 -5.62109375 39.3515625 C-9.19640378 34.91817807 -15.7752404 34.25994856 -21.0612793 33.03540039 C-28.92294954 31.19682043 -35.6937454 29.46678961 -41.12109375 23.1640625 C-43.43406712 17.17754319 -44.04805431 11.27181961 -41.46875 5.2734375 C-33.26740578 -6.59233712 -11.2670362 -7.01495471 0 0 Z " fill="#234974" transform="translate(580.18359375,739.5859375)"/>
<path d="M0 0 C0 4.29 0 8.58 0 13 C-2.536875 13.12375 -2.536875 13.12375 -5.125 13.25 C-10.11034809 13.71777688 -13.22412203 14.50731288 -17 18 C-20.84770649 24.10325857 -21.11199943 30.30055155 -21.31640625 37.3671875 C-21.33718735 38.04677521 -21.35796844 38.72636292 -21.37937927 39.42654419 C-21.4442363 41.57593666 -21.50345941 43.7254407 -21.5625 45.875 C-21.60574612 47.3411569 -21.64936225 48.80730294 -21.69335938 50.2734375 C-21.80054074 53.84884622 -21.90008592 57.42435142 -22 61 C-26.62 61 -31.24 61 -36 61 C-36 41.53 -36 22.06 -36 2 C-31.38 2 -26.76 2 -22 2 C-21.67 3.65 -21.34 5.3 -21 7 C-20.52949219 6.57847656 -20.05898438 6.15695312 -19.57421875 5.72265625 C-18.95160156 5.17480469 -18.32898438 4.62695312 -17.6875 4.0625 C-17.07261719 3.51722656 -16.45773437 2.97195313 -15.82421875 2.41015625 C-11.21962629 -1.14928246 -5.51804131 -0.06491813 0 0 Z " fill="#234974" transform="translate(697,736)"/>
</svg>
